<svg xmlns="http://www.w3.org/2000/svg" enable-background="new 0 0 32 32" viewBox="0 0 32 32" id="access-control-list">
  <path d="M10 6c0-1.654-1.346-3-3-3S4 4.346 4 6s1.346 3 3 3S10 7.654 10 6zM7 7C6.448 7 6 6.551 6 6s.448-1 1-1 1 .449 1 1S7.552 7 7 7zM3 15c.553 0 1-.448 1-1 0-.885.655-2.669 1.089-3h3.822C9.345 11.331 10 13.115 10 14c0 .552.447 1 1 1s1-.448 1-1c0-1.165-.936-5-3-5H7 5c-2.064 0-3 3.835-3 5C2 14.552 2.447 15 3 15zM10 18c0-1.654-1.346-3-3-3s-3 1.346-3 3 1.346 3 3 3S10 19.654 10 18zM7 19c-.552 0-1-.449-1-1s.448-1 1-1 1 .449 1 1S7.552 19 7 19zM11 27c.553 0 1-.448 1-1 0-1.165-.936-5-3-5H7 5c-2.064 0-3 3.835-3 5 0 .552.447 1 1 1s1-.448 1-1c0-.885.655-2.669 1.089-3h3.822C9.345 23.331 10 25.115 10 26 10 26.552 10.447 27 11 27z"></path>
  <path d="M29.707,8.293l-6-6C23.52,2.105,23.266,2,23,2H11c-0.553,0-1,0.448-1,1s0.447,1,1,1h11.586L28,9.414V28H11
		c-0.553,0-1,0.448-1,1s0.447,1,1,1h18c0.553,0,1-0.448,1-1V9C30,8.735,29.895,8.48,29.707,8.293z"></path>
  <path d="M15 11c.256 0 .512-.098.707-.293l3-3c.391-.391.391-1.023 0-1.414s-1.023-.391-1.414 0L15 8.586l-.293-.293c-.391-.391-1.023-.391-1.414 0s-.391 1.023 0 1.414l1 1C14.488 10.902 14.744 11 15 11zM13.293 25.707C13.488 25.902 13.744 26 14 26s.512-.098.707-.293l.793-.793.793.793C16.488 25.902 16.744 26 17 26s.512-.098.707-.293c.391-.391.391-1.023 0-1.414L16.914 23.5l.793-.793c.391-.391.391-1.023 0-1.414s-1.023-.391-1.414 0L15.5 22.086l-.793-.793c-.391-.391-1.023-.391-1.414 0s-.391 1.023 0 1.414l.793.793-.793.793C12.902 24.684 12.902 25.316 13.293 25.707zM16 19c1.315 0 2.422-.856 2.827-2.035C18.885 16.976 18.938 17 19 17h7c.553 0 1-.448 1-1v-2c0-.552-.447-1-1-1s-1 .448-1 1v1h-1v-1c0-.552-.447-1-1-1s-1 .448-1 1v1h-3c-.062 0-.115.024-.173.035C18.422 13.856 17.315 13 16 13c-1.654 0-3 1.346-3 3S14.346 19 16 19zM16 15c.552 0 1 .449 1 1s-.448 1-1 1-1-.449-1-1S15.448 15 16 15z"></path>
</svg>
