<svg xmlns="http://www.w3.org/2000/svg" viewBox="0 0 48 48" id="accounting">
  <path d="M45,22H44V3a3,3,0,0,0-3-3H3A3,3,0,0,0,0,3V29a3,3,0,0,0,3,3H13v8H12a1,1,0,0,0,0,2H26v3a3,3,0,0,0,3,3H45a3,3,0,0,0,3-3V25A3,3,0,0,0,45,22ZM2,3A1,1,0,0,1,3,2H41a1,1,0,0,1,1,1V22H29a3,3,0,0,0-2.82,2H2ZM2,29V26H26v4H3A1,1,0,0,1,2,29ZM15,40V32H26v8Zm31,5a1,1,0,0,1-1,1H29a1,1,0,0,1-1-1V25a1,1,0,0,1,1-1H45a1,1,0,0,1,1,1Z"></path>
  <path d="M43 26H31a1 1 0 0 0-1 1v4a1 1 0 0 0 1 1H43a1 1 0 0 0 1-1V27A1 1 0 0 0 43 26zm-1 4H32V28H42zM33 34H31a1 1 0 0 0 0 2h2a1 1 0 0 0 0-2zM38 34H36a1 1 0 0 0 0 2h2a1 1 0 0 0 0-2zM43 34H41a1 1 0 0 0 0 2h2a1 1 0 0 0 0-2zM33 38H31a1 1 0 0 0 0 2h2a1 1 0 0 0 0-2zM38 38H36a1 1 0 0 0 0 2h2a1 1 0 0 0 0-2zM33 42H31a1 1 0 0 0 0 2h2a1 1 0 0 0 0-2zM38 42H36a1 1 0 0 0 0 2h2a1 1 0 0 0 0-2z"></path>
  <rect width="4" height="6" x="40" y="38" rx="1"></rect>
  <path d="M23,18v-.18A3,3,0,0,0,22,12a1,1,0,1,1,1-1,1,1,0,0,0,2,0,3,3,0,0,0-2-2.82V8a1,1,0,0,0-2,0v.18A3,3,0,0,0,22,14a1,1,0,1,1-1,1,1,1,0,0,0-2,0,3,3,0,0,0,2,2.82V18a1,1,0,0,0,2,0Z"></path>
  <path d="M31,13a9,9,0,1,0-9,9A9,9,0,0,0,31,13ZM15,13a7,7,0,1,1,7,7A7,7,0,0,1,15,13Z"></path>
  <circle cx="22" cy="28" r="1"></circle>
</svg>
