<svg xmlns="http://www.w3.org/2000/svg" viewBox="0 0 64 64" id="atm">
  <path fill="#e5e5e5" d="M61 63.27H3c-1.66 0-3-1.34-3-3V36.94h64v23.33c0 1.66-1.34 3-3 3z"></path>
  <path fill="#687e87" d="M28.59 59.95H6.01c-1.1 0-2-.9-2-2V42.26c0-1.1.9-2 2-2h22.58c1.1 0 2 .9 2 2v15.69a2 2 0 0 1-2 2z"></path>
  <path fill="#f0f3f5" d="M9.86 46.04H7.59c-.29 0-.52-.23-.52-.52v-2.27c0-.29.23-.52.52-.52h2.27c.29 0 .52.23.52.52v2.27c0 .29-.23.52-.52.52zm0 5.72H7.59c-.29 0-.52-.23-.52-.52v-2.27c0-.29.23-.52.52-.52h2.27c.29 0 .52.23.52.52v2.27c0 .29-.23.52-.52.52zm0 5.72H7.59c-.29 0-.52-.23-.52-.52v-2.27c0-.29.23-.52.52-.52h2.27c.29 0 .52.23.52.52v2.27c0 .28-.23.52-.52.52zm5.72-11.44h-2.27c-.29 0-.52-.23-.52-.52v-2.27c0-.29.23-.52.52-.52h2.27c.29 0 .52.23.52.52v2.27c0 .29-.24.52-.52.52zm0 5.72h-2.27c-.29 0-.52-.23-.52-.52v-2.27c0-.29.23-.52.52-.52h2.27c.29 0 .52.23.52.52v2.27c0 .29-.24.52-.52.52zm0 5.72h-2.27c-.29 0-.52-.23-.52-.52v-2.27c0-.29.23-.52.52-.52h2.27c.29 0 .52.23.52.52v2.27c0 .28-.24.52-.52.52zm5.71-11.44h-2.27c-.29 0-.52-.23-.52-.52v-2.27c0-.29.23-.52.52-.52h2.27c.29 0 .52.23.52.52v2.27c0 .29-.23.52-.52.52zm0 5.72h-2.27c-.29 0-.52-.23-.52-.52v-2.27c0-.29.23-.52.52-.52h2.27c.29 0 .52.23.52.52v2.27c0 .29-.23.52-.52.52zm0 5.72h-2.27c-.29 0-.52-.23-.52-.52v-2.27c0-.29.23-.52.52-.52h2.27c.29 0 .52.23.52.52v2.27c0 .28-.23.52-.52.52z"></path>
  <path fill="#fbd984" d="M27.01 46.04h-2.27c-.29 0-.52-.23-.52-.52v-2.27c0-.29.23-.52.52-.52h2.27c.29 0 .52.23.52.52v2.27c0 .29-.23.52-.52.52z"></path>
  <path fill="#f37970" d="M27.01 51.76h-2.27c-.29 0-.52-.23-.52-.52v-2.27c0-.29.23-.52.52-.52h2.27c.29 0 .52.23.52.52v2.27c0 .29-.23.52-.52.52z"></path>
  <path fill="#5fc3ab" d="M27.01 57.48h-2.27c-.29 0-.52-.23-.52-.52v-2.27c0-.29.23-.52.52-.52h2.27c.29 0 .52.23.52.52v2.27c0 .28-.23.52-.52.52z"></path>
  <path fill="#c6c1c1" d="M36.61 50.04v-6.5c0-.54.44-.98.98-.98h21.37c.54 0 .98.44.98.98v6.5c0 .54-.44.98-.98.98H37.59c-.54 0-.98-.44-.98-.98z"></path>
  <path fill="#687e87" d="M37.57 43.56h21.42v6.46H37.57zM58.99 57.65H37.57c-.55 0-1-.45-1-1s.45-1 1-1h21.42c.55 0 1 .45 1 1s-.45 1-1 1zM64 36.94H0V3.73c0-1.66 1.34-3 3-3h58c1.66 0 3 1.34 3 3v33.21z"></path>
  <path fill="#455b6a" d="M50.5 32.73h-37c-1.1 0-2-.9-2-2V6.94c0-1.1.9-2 2-2h37c1.1 0 2 .9 2 2v23.79c0 1.1-.9 2-2 2z"></path>
  <path fill="#5bcaee" d="M50.505 6.935v23.79h-37V6.935z"></path>
  <circle cx="58.25" cy="9.33" r="2" fill="#e5e5e5"></circle>
  <circle cx="58.25" cy="15.67" r="2" fill="#e5e5e5"></circle>
  <circle cx="58.25" cy="22" r="2" fill="#e5e5e5"></circle>
  <circle cx="58.25" cy="28.33" r="2" fill="#e5e5e5"></circle>
  <circle cx="5.75" cy="9.33" r="2" fill="#e5e5e5"></circle>
  <circle cx="5.75" cy="15.67" r="2" fill="#e5e5e5"></circle>
  <circle cx="5.75" cy="22" r="2" fill="#e5e5e5"></circle>
  <circle cx="5.75" cy="28.33" r="2" fill="#e5e5e5"></circle>
  <path fill="#f0f3f5" d="M26.64 22.37c.05.15.09.28.1.37.01.09 0 .16-.05.2-.05.04-.13.07-.26.08-.12.01-.29.02-.51.02-.23 0-.4 0-.53-.01s-.22-.02-.29-.04a.304.304 0 0 1-.14-.08.365.365 0 0 1-.07-.14l-.58-1.68h-3.23l-.54 1.63c-.02.06-.04.11-.07.15-.03.04-.08.07-.14.1-.06.02-.16.04-.27.05-.12.01-.27.01-.46.01-.2 0-.36-.01-.48-.02-.11-.01-.19-.04-.24-.09a.277.277 0 0 1-.05-.21c.01-.09.05-.21.1-.36l2.65-7.4c.03-.07.06-.13.09-.18.04-.05.09-.08.17-.1.08-.02.18-.04.32-.05.14-.01.32-.01.54-.01.26 0 .47 0 .62.01.16.01.28.02.36.05.09.02.15.06.19.11.04.05.07.11.1.19l2.67 7.4zm-3.94-6.11-1.22 3.55h2.44l-1.22-3.55zm10.62-.9c0 .12-.01.23-.02.32s-.03.16-.05.21a.36.36 0 0 1-.08.12.15.15 0 0 1-.11.04h-2.15v6.73c0 .04-.01.08-.04.12-.03.03-.08.06-.14.08-.07.02-.16.04-.27.05a4.54 4.54 0 0 1-.84 0c-.11-.01-.2-.03-.27-.05s-.11-.05-.14-.08c-.03-.03-.04-.07-.04-.12v-6.73H27a.15.15 0 0 1-.11-.04.36.36 0 0 1-.08-.12.808.808 0 0 1-.05-.21 2.726 2.726 0 0 1 0-.65c.01-.09.03-.16.05-.22a.36.36 0 0 1 .08-.12.21.21 0 0 1 .11-.04h6.06c.04 0 .08.01.11.04.03.02.06.06.08.12.02.05.04.13.05.22.01.09.02.2.02.33zm11.84 7.41c0 .04-.01.08-.04.12-.02.03-.07.06-.13.08-.06.02-.15.04-.26.05a4.301 4.301 0 0 1-.81 0c-.11-.01-.19-.03-.25-.05-.06-.02-.11-.05-.13-.08-.03-.03-.04-.07-.04-.12v-6.79l-2.49 6.78c-.02.06-.05.1-.09.14-.04.04-.09.07-.16.09-.07.02-.16.04-.26.04-.11.01-.23.01-.39.01-.15 0-.28-.01-.39-.02-.11-.01-.19-.03-.26-.05a.354.354 0 0 1-.16-.09.233.233 0 0 1-.08-.12l-2.4-6.78h-.02v6.79c0 .04-.01.08-.04.12-.02.03-.07.06-.14.08-.07.02-.15.04-.26.05a4.07 4.07 0 0 1-.8 0c-.11-.01-.19-.03-.26-.05-.06-.02-.11-.05-.13-.08a.214.214 0 0 1-.04-.12v-7.43c0-.22.06-.39.18-.5.12-.12.28-.17.48-.17h1.14c.2 0 .38.02.52.05.15.03.27.09.38.16.11.08.19.17.27.3.07.12.13.27.19.45l1.86 4.97h.03l1.93-4.96c.06-.18.12-.33.19-.46.07-.12.15-.23.24-.3.09-.08.2-.13.32-.16s.27-.05.43-.05h1.18c.12 0 .22.01.31.04s.16.07.21.13c.06.06.1.13.13.21.03.08.04.18.04.29v7.43z"></path>
</svg>
