<svg xmlns="http://www.w3.org/2000/svg" viewBox="0 0 64 64" id="circuit-training">
  <path d="M19.975 49.973c0-1.714-1.395-3.11-3.11-3.11s-3.11 1.395-3.11 3.11 1.395 3.111 3.11 3.111 3.11-1.395 3.11-3.111zm-4.282 0c0-.646.526-1.172 1.172-1.172s1.173.526 1.173 1.172-.526 1.173-1.173 1.173-1.172-.526-1.172-1.173zM16.968 53.95h-.206c-3.345 0-6.066 2.721-6.066 6.066v1.632c0 .535.434.969.969.969h10.4c.535 0 .969-.433.969-.969v-1.632c0-3.345-2.721-6.066-6.066-6.066zm4.129 6.729H12.634v-.663c0-2.276 1.852-4.129 4.129-4.129h.206c2.277 0 4.129 1.852 4.129 4.129v.663zM33.842 49.973c0-1.714-1.395-3.11-3.11-3.11s-3.11 1.395-3.11 3.11 1.395 3.111 3.11 3.111 3.11-1.395 3.11-3.111zm-4.282 0c0-.646.526-1.172 1.173-1.172s1.172.526 1.172 1.172-.526 1.173-1.172 1.173-1.173-.526-1.173-1.173zM30.835 53.95h-.206c-3.345 0-6.066 2.721-6.066 6.066v1.632c0 .535.434.969.969.969h10.4c.535 0 .969-.433.969-.969v-1.632c0-3.345-2.721-6.066-6.066-6.066zm4.129 6.729h-8.463v-.663c0-2.276 1.852-4.129 4.129-4.129h.206c2.277 0 4.129 1.852 4.129 4.129v.663zM10.153 8.353c1.896 0 3.439-1.563 3.439-3.485s-1.543-3.485-3.439-3.485-3.439 1.563-3.439 3.485 1.543 3.485 3.439 3.485zm0-5.032c.828 0 1.502.694 1.502 1.547s-.674 1.548-1.502 1.548-1.502-.694-1.502-1.548.674-1.547 1.502-1.547z"></path>
  <path d="M63,4.261v-.854c0-1.116-.908-2.024-2.024-2.024H21.54c-1.116,0-2.024,.908-2.024,2.024v.854c0,1.058,.819,1.919,1.854,2.007v2.306l-8.67,.651-2.168,.029c-2.761,.032-5.383,1.064-7.201,2.839-1.502,1.491-2.33,3.387-2.33,5.338v4.379c0,.961,.852,1.744,1.899,1.744h1.938v11.383c0,1.095,.987,1.986,2.199,1.986h3.113s.003,0,.005,0,.003,0,.005,0h2.961c1.213,0,2.2-.891,2.2-1.986V15.403l6.051-1.459v18.093c-1.035,.088-1.854,.949-1.854,2.006v.854c0,1.116,.908,2.025,2.024,2.025h16.669l-1.988,6.956h-3.134c-.535,0-.969,.433-.969,.969s.434,.969,.969,.969h2.581l-.494,1.73c-.147,.514,.151,1.05,.665,1.198,.089,.025,.179,.037,.267,.037,.421,0,.809-.277,.931-.703l.646-2.262h7.151l.646,2.262c.122,.426,.509,.703,.931,.703,.088,0,.178-.012,.267-.037,.514-.148,.812-.684,.665-1.198l-.494-1.73h2.581c.535,0,.969-.433,.969-.969s-.434-.969-.969-.969h-3.134l-1.988-6.956h16.669c1.116,0,2.024-.908,2.024-2.025v-.854c0-1.057-.818-1.917-1.852-2.006V6.268c1.034-.089,1.852-.95,1.852-2.007Zm-41.547-.854c0-.048,.039-.087,.087-.087H60.976c.048,0,.087,.039,.087,.087v.854c0,.048-.039,.087-.087,.087H21.54c-.048,0-.087-.039-.087-.087v-.854Zm-7.33,10.291c-.435,.105-.742,.494-.742,.942l.011,20.247c-.017,.026-.112,.096-.273,.096h-1.997v-15.047c0-.535-.434-.969-.969-.969s-.969,.434-.969,.969v15.047h-2.149c-.139,0-.229-.053-.254-.053-.004,0-.006,.002-.007,.005V14.64c0-.535-.434-.969-.969-.969s-.969,.434-.969,.969v6.972l-1.899-.005v-4.177c0-1.43,.624-2.837,1.752-3.956,1.459-1.425,3.596-2.256,5.865-2.282l2.229-.032,12.068-.901c-.159,.553-.711,1.024-1.45,1.202l-1.292,.311s0,0-.001,0l-7.987,1.926Zm9.734-.354c1.754-.422,2.98-1.826,2.98-3.412,0-.897-.791-1.627-1.763-1.627-.024,0-.126,0-.15,.003l-1.617,.121v-2.143H59.211v25.734H23.307V13.477l.55-.133Zm20.423,30.535h-6.044l1.988-6.956h2.069l1.988,6.956Zm16.783-8.981c0,.048-.039,.087-.087,.087H21.54c-.048,0-.087-.039-.087-.087v-.854c0-.047,.039-.086,.087-.086H60.976c.048,0,.087,.039,.087,.086v.854Z"></path>
  <path d="M31.983,30.715c1.896,0,3.439-1.543,3.439-3.439,0-1.558-1.048-2.862-2.471-3.283v-2.606h5.462v1.955c0,1.102,.896,1.998,1.998,1.998h1.894c1.102,0,1.998-.896,1.998-1.998v-4.485h6.229c.535,0,.969-.434,.969-.969v-3.575c1.423-.421,2.471-1.726,2.471-3.283,0-1.897-1.543-3.44-3.439-3.44s-3.44,1.543-3.44,3.44c0,1.558,1.048,2.862,2.471,3.283v2.606h-5.26v-3.378c0-1.102-.896-1.998-1.998-1.998h-1.894c-1.102,0-1.998,.896-1.998,1.998v5.909h-6.43c-.535,0-.969,.434-.969,.969v3.575c-1.423,.421-2.471,1.726-2.471,3.283,0,1.896,1.543,3.439,3.439,3.439ZM49.031,11.029c0-.828,.674-1.502,1.502-1.502s1.502,.674,1.502,1.502-.674,1.502-1.502,1.502-1.502-.674-1.502-1.502Zm-6.664,2.511v9.801c0,.034-.027,.061-.061,.061l-1.955-.061,.061-9.862,1.955,.061Zm-10.383,12.234c.828,0,1.502,.674,1.502,1.502s-.674,1.502-1.502,1.502-1.502-.674-1.502-1.502,.674-1.502,1.502-1.502Z"></path>
</svg>
