<svg xmlns="http://www.w3.org/2000/svg" viewBox="0 0 64 64" id="commission">
  <path d="M13 35c-.128 0-1.251-.021-1.251-.716h-2A2.665 2.665 0 0 0 12 36.875V39h2v-2.125a2.665 2.665 0 0 0 2.251-2.591c0-2.138-1.869-2.656-2.985-2.966-1.368-.379-1.517-.544-1.517-1.034A1.375 1.375 0 0 1 13 29a1.375 1.375 0 0 1 1.251 1.284h2A3.369 3.369 0 0 0 14 27.189V25h-2v2.189a3.369 3.369 0 0 0-2.251 3.095c0 2.136 1.867 2.654 2.983 2.962 1.37.38 1.519.546 1.519 1.038 0 .695-1.123.716-1.251.716z"></path>
  <path d="M13 43a11.01 11.01 0 0 0 10.949-10H31v22a1 1 0 0 0 1 1h5v2a1 1 0 0 0 1.447.9l6-3a1 1 0 0 0 0-1.79l-6-3A1 1 0 0 0 37 52v2h-4V33h4v2a1 1 0 0 0 1.447.9l6-3a1 1 0 0 0 0-1.79l-6-3A1 1 0 0 0 37 29v2h-4V10h4v2a1 1 0 0 0 1.447.895l6-3a1 1 0 0 0 0-1.79l-6-3A1 1 0 0 0 37 6v2h-5a1 1 0 0 0-1 1v22h-7.051A11 11 0 1 0 13 43zm26 10.618L41.764 55 39 56.382zm0-23L41.764 32 39 33.382zm0-23L41.764 9 39 10.382zM13 23a9 9 0 1 1-9 9 9.01 9.01 0 0 1 9-9zM60 14a6 6 0 0 0-3.107-5.253 4 4 0 1 0-5.786 0A6 6 0 0 0 48 14v5a1 1 0 0 0 1 1h10a1 1 0 0 0 1-1zM54 4a2 2 0 1 1-2 2 2 2 0 0 1 2-2zm4 14h-8v-4a4 4 0 0 1 8 0zM60 35a6 6 0 0 0-3.107-5.253 4 4 0 1 0-5.786 0A6 6 0 0 0 48 35v5a1 1 0 0 0 1 1h10a1 1 0 0 0 1-1zm-6-10a2 2 0 1 1-2 2 2 2 0 0 1 2-2zm4 14h-8v-4a4 4 0 0 1 8 0zM49 62h10a1 1 0 0 0 1-1v-5a6 6 0 0 0-3.107-5.253 4 4 0 1 0-5.786 0A6 6 0 0 0 48 56v5a1 1 0 0 0 1 1zm5-16a2 2 0 1 1-2 2 2 2 0 0 1 2-2zm-4 10a4 4 0 0 1 8 0v4h-8z"></path>
</svg>
