<svg width="60" height="60" viewBox="0 0 60 60" fill="none" xmlns="http://www.w3.org/2000/svg">
<path d="M46.7723 31.0183L23.8134 43.6537C22.5548 44.3464 20.9729 43.8876 20.2802 42.629L13.2838 29.9164C12.5911 28.6577 13.0499 27.0758 14.3085 26.3831L37.2674 13.7476C38.5261 13.0549 40.108 13.5137 40.8007 14.7724L47.7971 27.485C48.4898 28.7436 48.031 30.3255 46.7723 31.0183Z" fill="#FEBC1F"/>
<path d="M46.2704 30.1071L23.3115 42.7426C22.0528 43.4353 20.4709 42.9765 19.7782 41.7178L12.7818 29.0052C12.0891 27.7466 12.5479 26.1647 13.8066 25.472L36.7654 12.8365C38.0241 12.1438 39.606 12.6026 40.2987 13.8613L47.2951 26.5739C47.9878 27.8325 47.529 29.4144 46.2704 30.1071Z" fill="#FFD475"/>
<path d="M36.7654 12.8379L13.8066 25.4734C12.5479 26.1661 12.0891 27.748 12.7818 29.0066L19.7782 41.7193C19.7782 41.7193 13.259 29.2516 39.0866 12.7475C38.3667 12.4241 37.5101 12.4281 36.7654 12.8379Z" fill="#FEBC1F"/>
<path d="M14.8415 30.5643L15.72 32.1606C15.9415 32.563 16.4472 32.7097 16.8496 32.4882L41.0696 19.1587C41.472 18.9373 41.6187 18.4315 41.3972 18.0291L40.5187 16.4328C40.2972 16.0304 39.7915 15.8837 39.3891 16.1052L15.1691 29.4347C14.7667 29.6561 14.62 30.1619 14.8415 30.5643Z" fill="#1D2943"/>
<path d="M14.6032 30.1209L15.4818 31.7173C15.7032 32.1197 16.209 32.2663 16.6114 32.0449L40.8313 18.7154C41.2337 18.4939 41.3804 17.9882 41.159 17.5858L40.2804 15.9894C40.0589 15.587 39.5532 15.4403 39.1508 15.6618L14.9308 28.9913C14.5284 29.2128 14.3817 29.7185 14.6032 30.1209Z" fill="#4C5C75"/>
<path d="M42.6279 46.9985L16.4217 46.9985C14.985 46.9985 13.8203 45.8339 13.8203 44.3972L13.8203 29.8865C13.8203 28.4498 14.985 27.2852 16.4217 27.2852L42.6279 27.2852C44.0646 27.2852 45.2292 28.4498 45.2292 29.8865L45.2292 44.3972C45.2292 45.8339 44.0646 46.9985 42.6279 46.9985Z" fill="#5094FF"/>
<path d="M16.4217 45.9614L42.6279 45.9614C44.0646 45.9614 45.2292 44.7968 45.2292 43.3601L45.2292 28.8494C45.2292 27.4127 44.0646 26.2481 42.6279 26.2481L16.4217 26.248C14.985 26.248 13.8203 27.4127 13.8203 28.8494L13.8203 43.3601C13.8203 44.7968 14.985 45.9614 16.4217 45.9614Z" fill="#57B3FE"/>
<path d="M16.4169 26.249L42.6232 26.2491C44.0598 26.2491 45.2245 27.4137 45.2245 28.8504L45.2245 43.3611C45.2245 43.3611 44.9246 29.295 14.3398 27.289C14.8145 26.6585 15.567 26.249 16.4169 26.249Z" fill="#5094FF"/>
<path d="M43.1888 41.2907V41.6944H43.1834C43.1939 42.2404 42.7385 42.6991 42.1895 42.6991L39.5501 42.6991C39.0108 42.6991 38.5455 42.2489 38.5562 41.6944H38.5508V41.2907H38.6153C38.7711 40.8985 39.1955 40.6299 39.6414 40.6299L42.0981 40.6299C42.544 40.6299 42.9685 40.8985 43.1243 41.2907H43.1888Z" fill="#E3E7F0"/>
<path d="M42.1905 42.2996L39.6391 42.2996C39.125 42.2996 38.6392 41.9506 38.5671 41.4416C38.4792 40.8219 38.9585 40.2901 39.5614 40.2901L42.1028 40.29C42.6479 40.29 43.1556 40.6856 43.1887 41.2297C43.2256 41.8337 42.748 42.2996 42.1905 42.2996Z" fill="white"/>
<path d="M35.6263 41.2907V41.6944H35.6209C35.6314 42.2404 35.176 42.6991 34.627 42.6991L31.9876 42.6991C31.4483 42.6991 30.983 42.2489 30.9937 41.6944H30.9883V41.2907H31.0528C31.2086 40.8985 31.633 40.6299 32.0789 40.6299L34.5356 40.6299C34.9815 40.6299 35.406 40.8985 35.5618 41.2907H35.6263Z" fill="#E3E7F0"/>
<path d="M34.6221 42.2996L32.0707 42.2996C31.5566 42.2996 31.0709 41.9506 30.9987 41.4416C30.9108 40.8219 31.3902 40.2901 31.993 40.2901L34.5344 40.29C35.0795 40.29 35.5872 40.6856 35.6204 41.2297C35.6572 41.8337 35.1797 42.2996 34.6221 42.2996Z" fill="white"/>
<path d="M28.0599 41.2907V41.6944H28.0545C28.065 42.2404 27.6096 42.6991 27.0606 42.6991H24.4212C23.8819 42.6991 23.4166 42.2489 23.4273 41.6944H23.4219V41.2907H23.4863C23.6422 40.8985 24.0666 40.6299 24.5125 40.6299H26.9692C27.4151 40.6299 27.8396 40.8985 27.9954 41.2907H28.0599Z" fill="#E3E7F0"/>
<path d="M27.0616 42.2996L24.5102 42.2996C23.9961 42.2996 23.5103 41.9506 23.4382 41.4416C23.3503 40.8219 23.8296 40.2901 24.4325 40.2901L26.9739 40.29C27.519 40.29 28.0266 40.6856 28.0598 41.2297C28.0967 41.8337 27.6191 42.2996 27.0616 42.2996Z" fill="white"/>
<path d="M20.5013 41.2907V41.6944H20.4959C20.5064 42.2404 20.051 42.6991 19.502 42.6991L16.8626 42.6991C16.3233 42.6991 15.858 42.2489 15.8687 41.6944H15.8633V41.2907H15.9278C16.0836 40.8985 16.508 40.6299 16.9539 40.6299L19.4106 40.6299C19.8565 40.6299 20.281 40.8985 20.4368 41.2907H20.5013Z" fill="#E3E7F0"/>
<path d="M19.4971 42.2996L16.9457 42.2996C16.4316 42.2996 15.9459 41.9506 15.8737 41.4416C15.7858 40.8219 16.2652 40.2901 16.868 40.2901L19.4094 40.29C19.9545 40.29 20.4622 40.6856 20.4954 41.2297C20.5322 41.8337 20.0547 42.2996 19.4971 42.2996Z" fill="white"/>
<path d="M15.8633 30.8286L15.8633 33.256C15.8633 33.8679 16.3593 34.3639 16.9712 34.3639L21.5164 34.3639C22.1283 34.3639 22.6243 33.8678 22.6243 33.256L22.6243 30.8286C22.6243 30.2167 22.1282 29.7207 21.5164 29.7207L16.9712 29.7207C16.3593 29.7207 15.8633 30.2167 15.8633 30.8286Z" fill="#FEBC1F"/>
<path d="M15.8633 30.4517L15.8633 32.879C15.8633 33.4909 16.3593 33.9869 16.9712 33.9869L21.5164 33.9869C22.1282 33.9869 22.6243 33.4909 22.6243 32.879V30.4516C22.6243 29.8398 22.1282 29.3438 21.5164 29.3438L16.9712 29.3438C16.3593 29.3438 15.8633 29.8398 15.8633 30.4517Z" fill="#FFD475"/>
<path d="M19.126 31.4034V29.3438H18.5998V31.4034H15.8633V31.9297H17.3604V33.9869H17.8867V31.9297H20.2561V33.9869H20.7823V31.9297H22.6243V31.4034H19.126Z" fill="#FEBC1F"/>
<path d="M42.7072 33.2209L39.7444 33.2209C39.4976 33.2209 39.2643 33.0533 39.2296 32.8089C39.1874 32.5113 39.4176 32.2559 39.7071 32.2559L42.6651 32.2559C42.9269 32.2559 43.1707 32.4458 43.1866 32.7071C43.2043 32.9972 42.9749 33.2209 42.7072 33.2209Z" fill="white"/>
<path d="M42.7019 31.1574L37.5003 31.1575C37.2534 31.1575 37.0201 30.9898 36.9855 30.7454C36.9433 30.4478 37.1735 30.1924 37.463 30.1924L42.6598 30.1924C42.9216 30.1924 43.1654 30.3824 43.1813 30.6437C43.199 30.9337 42.9697 31.1574 42.7019 31.1574Z" fill="white"/>
<path d="M41.916 19.9072C43.1544 21.4964 44.1666 23.2234 44.9421 25.0831C43.7018 23.4952 42.6934 21.7659 41.916 19.9072Z" fill="white"/>
<path d="M18.8438 25.081C20.6484 23.7 22.592 22.5447 24.6702 21.625C22.8666 23.0078 20.9208 24.1594 18.8438 25.081Z" fill="white"/>
<path d="M33.748 44.6551C36.0046 44.3882 38.2655 44.3859 40.522 44.6552C38.2655 44.9244 36.0046 44.9222 33.748 44.6551Z" fill="white"/>
</svg>
