<svg xmlns="http://www.w3.org/2000/svg" enable-background="new 0 0 64 64" viewBox="0 0 64 64" id="fraud-prevention">
  <path d="M2.909,14.004c-0.284,0.026-0.544,0.172-0.713,0.402c-0.17,0.229-0.233,0.521-0.174,0.8l3.371,16.01
	c2.969,14.104,12.783,25.587,26.252,30.719C31.759,61.979,31.879,62,32,62s0.241-0.021,0.356-0.065
	c13.469-5.132,23.283-16.615,26.252-30.719l3.371-16.01c0.059-0.279-0.004-0.57-0.174-0.8c-0.169-0.23-0.429-0.376-0.713-0.402
	l-1.446-0.132c-6.098-0.554-12.084-2.535-17.309-5.729l-9.814-5.997c-0.32-0.195-0.723-0.195-1.043,0l-9.814,5.997
	c-5.225,3.193-11.211,5.175-17.31,5.729L2.909,14.004z M22.708,9.851L32,4.172l9.292,5.679c5.485,3.352,11.769,5.432,18.171,6.014
	l0.327,0.029l-3.139,14.91C53.849,44.114,44.647,54.975,32,59.928C19.353,54.975,10.151,44.114,7.349,30.804L4.21,15.894
	l0.326-0.029C10.938,15.282,17.222,13.202,22.708,9.851z"></path>
  <path d="M21,33h6v3h-2c-0.552,0-1,0.447-1,1v12c0,0.553,0.448,1,1,1h14c0.552,0,1-0.447,1-1V37c0-0.553-0.448-1-1-1h-2v-3h6
	c1.654,0,3-1.346,3-3V18c0-1.654-1.346-3-3-3H21c-1.654,0-3,1.346-3,3v12C18,31.654,19.346,33,21,33z M38,48H26V38h12V48z M35,36h-6
	v-3h6V36z M43,31H29.184c0.414-1.161,1.514-2,2.816-2v-2c-2.414,0-4.434,1.721-4.899,4H21c-0.551,0-1-0.448-1-1v-5h24v5
	C44,30.552,43.551,31,43,31z M20,23v-2h24v2H20z M21,17h22c0.551,0,1,0.448,1,1v1H20v-1C20,17.448,20.449,17,21,17z"></path>
  <polygon points="31 46 33 46 33 42 34 42 34 40 30 40 30 42 31 42"></polygon>
  <rect width="2" height="2" x="42" y="39"></rect>
  <rect width="2" height="2" x="46" y="39"></rect>
  <rect width="2" height="2" x="46" y="35"></rect>
  <rect width="2" height="2" x="46" y="43"></rect>
  <rect width="2" height="2" x="20" y="39"></rect>
  <rect width="2" height="2" x="16" y="39"></rect>
  <rect width="2" height="2" x="16" y="35"></rect>
  <rect width="2" height="2" x="16" y="43"></rect>
</svg>
