<svg width="60" height="60" viewBox="0 0 60 60" fill="none" xmlns="http://www.w3.org/2000/svg">
<g clip-path="url(#clip0_213_520)">
<path d="M31.2305 10.2305V39.9258C31.2305 40.6148 30.6891 41.1562 30 41.1562C29.3109 41.1562 28.7695 40.6148 28.7695 39.9258V10.2305C28.7695 9.54132 29.3109 9 30 9C30.6891 9 31.2305 9.54132 31.2305 10.2305Z" fill="#C5C9F7"/>
<path d="M32.4609 41.1562V43.3219C32.4609 45.5859 31.5258 47.6531 30 49.0804C29.0648 49.9663 27.8836 50.5816 26.5546 50.8523C26.0626 50.9507 25.5703 51 25.1027 51C23.3801 51 21.7066 50.4094 20.3778 49.3266C18.6798 47.8992 17.6953 45.8319 17.6953 43.6172C17.6953 42.2637 18.8027 41.1562 20.1562 41.1562C21.5098 41.1562 22.6172 42.2637 22.6172 43.6172C22.6172 44.9707 23.7246 46.0781 25.0781 46.0781C26.4316 46.0781 27.5391 44.9707 27.5391 43.6172V41.1562C27.5391 39.8027 28.6465 38.6953 30 38.6953C31.3535 38.6953 32.4609 39.8027 32.4609 41.1562Z" fill="#063E8B"/>
<path d="M30 9L41.1562 30.3591C42.0469 29.1966 43.3629 28.5145 44.8477 28.5145C46.441 28.5145 47.8613 29.2751 48.7458 30.6006C49.0539 31.0611 49.6208 31.2504 50.1265 31.0956C50.6455 30.9382 51 30.4599 51 29.918C51 18.3836 41.5344 9 30 9Z" fill="#136EF1"/>
<path d="M9 29.918C9 30.4599 9.35446 30.9382 9.87355 31.0955C10.3939 31.2517 10.9538 31.0511 11.2542 30.6005C12.1386 29.2751 13.641 28.5144 15.2344 28.5144C16.7191 28.5144 18.0351 29.1965 18.9258 30.3591L30 9C18.4656 9 9 18.3836 9 29.918Z" fill="#1689FC"/>
<path d="M41.1562 28.6875V30.3609C40.3441 31.4437 39.3352 31.2469 38.8923 30.6069C38.0062 29.2781 36.5216 28.5152 34.9219 28.5152C33.3222 28.5152 31.9196 29.2781 31.0335 30.6069C30.7875 30.9515 30.3937 31.1238 30 31.1238C29.6063 31.1238 29.2125 30.9516 28.9665 30.6069C28.0804 29.2781 26.6778 28.5152 25.0781 28.5152C23.4784 28.5152 22.0759 29.2781 21.1898 30.6069C20.7468 31.2468 19.7379 31.4437 18.9258 30.3609V28.6875C18.9258 17.6379 23.7984 9 30 9C36.2016 9 41.1562 17.6379 41.1562 28.6875Z" fill="#17ACE8"/>
<path d="M41.1562 28.6875V30.3609C40.3441 31.4437 39.3352 31.2469 38.8923 30.6069C38.0062 29.2781 36.5216 28.5152 34.9219 28.5152C33.3222 28.5152 31.9196 29.2781 31.0335 30.6069C30.7875 30.9515 30.3937 31.1238 30 31.1238V9C36.2016 9 41.1562 17.6379 41.1562 28.6875Z" fill="#1689FC"/>
</g>
<defs>
<clipPath id="clip0_213_520">
<rect width="42" height="42" fill="white" transform="translate(9 9)"/>
</clipPath>
</defs>
</svg>
