<svg width="60" height="60" viewBox="0 0 60 60" fill="none" xmlns="http://www.w3.org/2000/svg">
<path fill-rule="evenodd" clip-rule="evenodd" d="M22.9409 42.3639C14.697 40.1782 13.4485 35.2086 18.0895 29.9472L15.4829 26.0452C7.59833 34.168 12.3726 42.0429 22.9409 42.3639ZM45.953 27.1086C48.1803 35.3332 44.4961 38.8982 37.6146 37.5139L35.5354 41.7202C46.5191 44.4796 50.959 36.4119 45.953 27.1086ZM21.1681 14.8467C27.1846 8.80774 32.1174 10.2123 34.3579 16.8581L39.044 16.5538C35.9445 5.67162 26.7303 5.86441 21.1681 14.8467Z" fill="#2E3092"/>
<path d="M22.9409 42.3643C14.697 40.1786 13.4485 35.209 18.0895 29.9476L15.4829 26.0456C7.59833 34.1684 12.3726 42.0433 22.9409 42.3643ZM45.953 27.109C48.1803 35.3336 44.4961 38.8987 37.6146 37.5143L35.5354 41.7206C46.5191 44.48 50.959 36.4123 45.953 27.109ZM21.1681 14.8471C27.1846 8.80814 32.1174 10.2127 34.3579 16.8585L39.044 16.5542C35.9445 5.67202 26.7303 5.86481 21.1681 14.8471Z" stroke="#231F20" stroke-width="0.288" stroke-miterlimit="2.6131"/>
<path fill-rule="evenodd" clip-rule="evenodd" d="M33.0439 45.2033C33.0425 45.2022 33.0411 45.2012 33.0396 45.2005C33.0386 45.2015 33.0375 45.2029 33.0368 45.204C32.831 45.0709 32.6274 44.9367 32.4241 44.8017C28.3212 42.1105 24.7634 38.9896 21.7445 35.4441C18.3653 31.5244 15.7341 27.1812 13.8167 22.4331C13.7872 22.3614 13.7577 22.2897 13.7285 22.2176C13.7289 22.2173 13.7292 22.2173 13.7296 22.2169C13.7292 22.2162 13.7292 22.2155 13.7289 22.2148C13.7299 22.2144 13.731 22.2137 13.7317 22.213C13.7314 22.2123 13.731 22.2116 13.7306 22.2105C13.8636 22.1427 13.9965 22.0756 14.1294 22.0088C18.4701 19.7987 22.9092 18.2628 27.4447 17.3929C32.7415 16.3437 38.0311 16.2266 43.314 16.997C43.3136 16.9988 43.3136 17.0006 43.3136 17.0023C43.3151 17.0023 43.3168 17.0027 43.3183 17.0027C43.3058 17.2473 43.2912 17.4909 43.276 17.7337C43.0012 22.5063 42.1134 27.0349 40.6196 31.3217C38.8812 36.4109 36.3432 41.0304 33.0439 45.2033ZM35.5037 41.7214C35.5023 41.7206 35.5009 41.7203 35.4995 41.7196C35.4991 41.7206 35.4984 41.7221 35.4977 41.7231C35.304 41.6489 35.1117 41.5737 34.9201 41.4973C31.05 39.9862 27.5559 38.0239 24.4343 35.6156C20.9481 32.961 18.0074 29.8241 15.5866 26.2275C15.5497 26.1732 15.5127 26.1185 15.4761 26.0638C15.4764 26.0638 15.4764 26.0635 15.4768 26.0635C15.4764 26.0628 15.4761 26.0624 15.4757 26.0617C15.4764 26.0613 15.4772 26.0606 15.4779 26.0599C15.4775 26.0592 15.4772 26.0585 15.4764 26.0581C15.5749 25.9786 15.673 25.8994 15.7714 25.821C18.9791 23.2309 22.3861 21.1823 25.9896 19.6684C30.1928 17.8726 34.553 16.8497 39.0636 16.5635C39.0636 16.5649 39.0639 16.5663 39.0643 16.5678C39.0654 16.5678 39.0668 16.5678 39.0682 16.5674C39.1009 16.7723 39.1315 16.9764 39.161 17.1806C39.7705 21.1812 39.8295 25.0871 39.344 28.8989C38.7967 33.4179 37.5047 37.688 35.5037 41.7214Z" fill="#D1D3D4"/>
<path fill-rule="evenodd" clip-rule="evenodd" d="M24.9199 21.9512H29.6022C30.8827 22.2679 31.6558 22.9386 31.9973 23.7182C32.1807 24.1365 32.2443 24.5909 32.1988 25.0408C32.153 25.4963 31.9934 25.9483 31.7318 26.3548C31.171 27.2257 30.1349 27.8748 28.7257 27.8993C27.9019 27.7565 27.4867 28.6338 28.1848 29.3067L32.8763 33.6538H24.9199C24.6815 33.6538 24.4863 33.4589 24.4863 33.2203V22.3847C24.4863 22.1461 24.6815 21.9512 24.9199 21.9512ZM32.7661 21.9512H36.0274C36.2662 21.9512 36.4613 22.1461 36.4613 22.3847V33.2203C36.4613 33.4589 36.2662 33.6538 36.0274 33.6538H35.2654L30.496 29.2346C31.6433 28.8501 32.5283 28.1183 33.0991 27.2318C33.4982 26.6119 33.7424 25.9128 33.8146 25.1995C33.8871 24.4809 33.7833 23.7491 33.4858 23.0699C33.3116 22.6726 33.0724 22.2952 32.7661 21.9512Z" fill="#2E3092"/>
<path d="M24.9199 21.9516H29.6022C30.8827 22.2683 31.6558 22.939 31.9973 23.7187C32.1807 24.1369 32.2443 24.5914 32.1988 25.0412C32.153 25.4968 31.9934 25.9487 31.7318 26.3553C31.171 27.2262 30.1349 27.8752 28.7257 27.8997C27.9019 27.757 27.4867 28.6343 28.1848 29.3071L32.8763 33.6543H24.9199C24.6815 33.6543 24.4863 33.4594 24.4863 33.2208V22.3851C24.4863 22.1465 24.6815 21.9516 24.9199 21.9516ZM32.7661 21.9516H36.0274C36.2662 21.9516 36.4613 22.1465 36.4613 22.3851V33.2208C36.4613 33.4594 36.2662 33.6543 36.0274 33.6543H35.2654L30.496 29.235C31.6433 28.8505 32.5283 28.1188 33.0991 27.2322C33.4982 26.6123 33.7424 25.9132 33.8146 25.1999C33.8871 24.4813 33.7833 23.7496 33.4858 23.0704C33.3116 22.6731 33.0724 22.2957 32.7661 21.9516Z" stroke="#231F20" stroke-width="0.288" stroke-miterlimit="2.6131"/>
<path fill-rule="evenodd" clip-rule="evenodd" d="M15.2637 52.5775V46.0557H17.4001V52.5775H15.2637Z" fill="#2E3092"/>
<path fill-rule="evenodd" clip-rule="evenodd" d="M20.7438 48.8577H21.697C22.0311 48.8577 22.2614 48.8122 22.3883 48.7231C22.5155 48.6326 22.5791 48.4753 22.5791 48.2516C22.5791 48.0219 22.5155 47.8618 22.3883 47.7709C22.2614 47.6818 22.013 47.6363 21.644 47.6363H20.7438V48.8577ZM18.6738 52.5775V46.0557H21.7983C22.7771 46.0557 23.4748 46.2023 23.8938 46.4938C24.3114 46.7856 24.5201 47.2664 24.5201 47.9328C24.5201 48.3319 24.434 48.6613 24.2631 48.9241C24.0921 49.1872 23.8273 49.3959 23.4702 49.5486C23.8334 49.6257 24.0982 49.7769 24.2631 50.0034C24.4294 50.2285 24.5172 50.5598 24.5293 50.9965L24.5641 51.9047C24.5641 51.9111 24.5655 51.9185 24.5687 51.926C24.5776 52.1859 24.6398 52.3219 24.7546 52.3339V52.5775H22.641C22.6033 52.4202 22.5745 52.2842 22.5546 52.1678C22.5351 52.0513 22.5262 51.9608 22.5262 51.8958V51.2443C22.5262 50.9088 22.4594 50.6716 22.3264 50.5339C22.1931 50.3965 21.9632 50.3283 21.6348 50.3283H20.7438V52.5775H18.6738Z" fill="#2E3092"/>
<path fill-rule="evenodd" clip-rule="evenodd" d="M29.8362 50.0483H31.8226C31.7636 50.9068 31.4612 51.5732 30.9135 52.0479C30.3672 52.5208 29.6272 52.7584 28.6936 52.7584C27.6465 52.7584 26.8237 52.4513 26.2245 51.8392C25.6238 51.2271 25.3242 50.3884 25.3242 49.3212C25.3242 48.2585 25.6206 47.4213 26.2152 46.806C26.8099 46.1925 27.6195 45.8857 28.6452 45.8857C29.591 45.8857 30.3338 46.114 30.8769 46.5703C31.4185 47.0254 31.7228 47.6784 31.7878 48.5248H29.7801C29.7498 48.1907 29.6425 47.9397 29.4563 47.7689C29.27 47.5995 29.0085 47.515 28.6712 47.515C28.2596 47.515 27.9522 47.6645 27.7467 47.9638C27.5409 48.2646 27.4379 48.7165 27.4379 49.3212C27.4379 49.9152 27.547 50.3643 27.7663 50.6679C27.9841 50.9718 28.3047 51.1244 28.7284 51.1244C29.0522 51.1244 29.3109 51.0307 29.5014 50.8447C29.6923 50.659 29.8042 50.3945 29.8362 50.0483Z" fill="#2E3092"/>
<path fill-rule="evenodd" clip-rule="evenodd" d="M34.0763 52.5775V47.7741H32.1973V46.0557H38.0133V47.7741H36.1737V52.5775H34.0763Z" fill="#2E3092"/>
<path fill-rule="evenodd" clip-rule="evenodd" d="M42.9628 50.0483H44.9496C44.8906 50.9068 44.5878 51.5732 44.0401 52.0479C43.4938 52.5208 42.7542 52.7584 41.8205 52.7584C40.7735 52.7584 39.9503 52.4513 39.3514 51.8392C38.7508 51.2271 38.4512 50.3884 38.4512 49.3212C38.4512 48.2585 38.7476 47.4213 39.3422 46.806C39.9368 46.1925 40.7464 45.8857 41.7722 45.8857C42.7179 45.8857 43.4607 46.114 44.0038 46.5703C44.5455 47.0254 44.8497 47.6784 44.9148 48.5248H42.907C42.8768 48.1907 42.7691 47.9397 42.5832 47.7689C42.397 47.5995 42.1354 47.515 41.7978 47.515C41.3862 47.515 41.0791 47.6645 40.8733 47.9638C40.6675 48.2646 40.5648 48.7165 40.5648 49.3212C40.5648 49.9152 40.6736 50.3643 40.8932 50.6679C41.1107 50.9718 41.4317 51.1244 41.8553 51.1244C42.1791 51.1244 42.4379 51.0307 42.6284 50.8447C42.8192 50.659 42.9312 50.3945 42.9628 50.0483Z" fill="#2E3092"/>
</svg>
