<svg xmlns="http://www.w3.org/2000/svg" viewBox="0 0 64 64" id="team">
  <path d="M62.603 7.633a.998.998 0 0 0-1.039-.102l-.171.084c-1.053.519-3.52 1.733-6.688.995h-.001c-3.466-.808-5.521-3.025-5.745-3.275a.999.999 0 0 0-1.731.492l-5.55 29.555A3.948 3.948 0 0 0 40 35h-.026A4.948 4.948 0 0 0 41 32a5.006 5.006 0 0 0-6-4.899V24c0-2.206-1.794-4-4-4h-.026A4.948 4.948 0 0 0 32 17c0-2.757-2.243-5-5-5s-5 2.243-5 5c0 1.13.391 2.162 1.026 3H23c-2.206 0-4 1.794-4 4v3.101A5.006 5.006 0 0 0 13 32c0 1.13.391 2.162 1.026 3H14c-2.206 0-4 1.794-4 4v3.101A5.006 5.006 0 0 0 4 47c0 1.13.391 2.162 1.026 3H5c-2.206 0-4 1.794-4 4v8h2v-8c0-1.103.897-2 2-2h8c1.103 0 2 .897 2 2v8h2v-8c0-2.206-1.794-4-4-4h-.026A4.948 4.948 0 0 0 14 47c0-1.627-.793-3.061-2-3.974V39c0-1.103.897-2 2-2h8c1.103 0 2 .897 2 2v4.026c-1.207.914-2 2.348-2 3.974 0 1.13.391 2.162 1.026 3H23c-2.206 0-4 1.794-4 4v8h2v-8c0-1.103.897-2 2-2h8c1.103 0 2 .897 2 2v8h2v-8c0-2.206-1.794-4-4-4h-.026A4.948 4.948 0 0 0 32 47c0-1.627-.793-3.061-2-3.974V39c0-1.103.897-2 2-2h8c1.103 0 2 .897 2 2v4.026c-1.207.914-2 2.348-2 3.974 0 1.13.391 2.162 1.026 3H41c-2.206 0-4 1.794-4 4v8h2v-8c0-1.103.897-2 2-2h8c1.103 0 2 .897 2 2v8h2v-8c0-2.206-1.794-4-4-4h-.026A4.948 4.948 0 0 0 50 47a5.006 5.006 0 0 0-6-4.899V39c0-.753-.222-1.451-.585-2.053l3.772-19.584a12.992 12.992 0 0 0 5.229 2.562c.875.204 1.713.287 2.502.287 2.81 0 4.985-1.056 5.861-1.481.288-.14.492-.41.548-.726l1.657-9.4a1 1 0 0 0-.381-.972zM9 50c-1.654 0-3-1.346-3-3s1.346-3 3-3 3 1.346 3 3-1.346 3-3 3zm18-36c1.654 0 3 1.346 3 3s-1.346 3-3 3-3-1.346-3-3 1.346-3 3-3zm-9 21c-1.654 0-3-1.346-3-3s1.346-3 3-3 3 1.346 3 3-1.346 3-3 3zm9 15c-1.654 0-3-1.346-3-3s1.346-3 3-3 3 1.346 3 3-1.346 3-3 3zm5.026-15H32c-2.206 0-4 1.794-4 4v3.101a4.995 4.995 0 0 0-2 0V39c0-2.206-1.794-4-4-4h-.026A4.948 4.948 0 0 0 23 32c0-1.627-.793-3.061-2-3.974V24c0-1.103.897-2 2-2h8c1.103 0 2 .897 2 2v4.026c-1.207.914-2 2.348-2 3.974 0 1.13.391 2.162 1.026 3zM36 35c-1.654 0-3-1.346-3-3s1.346-3 3-3 3 1.346 3 3-1.346 3-3 3zm9 9c1.654 0 3 1.346 3 3s-1.346 3-3 3-3-1.346-3-3 1.346-3 3-3zm14.447-26.849c-1.217.564-3.653 1.507-6.576.827a11.141 11.141 0 0 1-5.243-2.9l1.254-7.11c1.339 1.042 3.209 2.087 5.368 2.59 2.658.621 4.917.109 6.439-.452l-1.242 7.045zM26 1h2v4h-2zM11 15h4v2h-4z"></path>
  <path d="M39 15h4v2h-4zM14.98 5.393l1.414-1.414 2.829 2.828-1.414 1.414zM34.779 6.808l2.828-2.828 1.414 1.414-2.828 2.828z"></path>
</svg>
