<svg width="60" height="60" viewBox="0 0 60 60" fill="none" xmlns="http://www.w3.org/2000/svg">
<g clip-path="url(#clip0_213_649)">
<path d="M31.1455 49.125C41.5586 49.125 50 40.6836 50 30.2705C50 19.8575 41.5586 11.416 31.1455 11.416C20.7325 11.416 12.291 19.8575 12.291 30.2705C12.291 40.6836 20.7325 49.125 31.1455 49.125Z" fill="url(#paint0_linear_213_649)"/>
<path d="M44.422 20.353C43.775 19.8778 43.089 19.4419 42.3701 19.0461C41.9742 18.3271 41.5384 17.6411 41.0631 16.9941C38.4239 13.4014 34.9019 11.4229 31.146 11.4229C27.3901 11.4229 23.8682 13.4014 21.229 16.9941C20.7537 17.6411 20.3179 18.3272 19.922 19.0461C19.2031 19.4419 18.5171 19.8778 17.8701 20.353C14.2774 22.9923 12.2988 26.5141 12.2988 30.2701C12.2988 34.026 14.2774 37.5479 17.8701 40.1871C18.5171 40.6624 19.2031 41.0982 19.922 41.4941C20.3179 42.213 20.7537 42.899 21.229 43.546C23.8682 47.1387 27.3901 49.1173 31.146 49.1173C34.9019 49.1173 38.4239 47.1387 41.0631 43.546C41.5384 42.899 41.9742 42.213 42.3701 41.494C43.089 41.0981 43.7751 40.6623 44.422 40.187C48.0147 37.5479 49.9933 34.0259 49.9933 30.27C49.9933 26.5141 48.0147 22.9923 44.422 20.353ZM31.146 48.2301C30.111 48.2301 29.0139 46.6882 28.1465 44.0573C29.1296 44.1729 30.1316 44.2328 31.146 44.2328C32.1605 44.2328 33.1625 44.1729 34.1456 44.0573C33.2782 46.6883 32.1811 48.2301 31.146 48.2301ZM31.146 43.3456C30.0246 43.3456 28.9272 43.2697 27.8621 43.1258C27.2711 41.0358 26.8419 38.5269 26.5963 35.7878C28.0666 35.8929 29.592 35.9471 31.146 35.9471C32.7001 35.9471 34.2255 35.8929 35.6958 35.7878C35.4503 38.5269 35.0211 41.0357 34.43 43.1258C33.3649 43.2697 32.2675 43.3456 31.146 43.3456ZM31.146 12.3101C32.1811 12.3101 33.2782 13.852 34.1456 16.4829C33.1625 16.3672 32.1605 16.3073 31.146 16.3073C30.1316 16.3073 29.1296 16.3672 28.1465 16.4829C29.0139 13.8519 30.111 12.3101 31.146 12.3101ZM31.146 17.1946C32.2675 17.1946 33.3649 17.2705 34.43 17.4145C35.0211 19.5045 35.4503 22.0133 35.6958 24.7524C34.2255 24.6473 32.7001 24.5931 31.146 24.5931C29.592 24.5931 28.0667 24.6473 26.5963 24.7524C26.8418 22.0133 27.271 19.5045 27.8621 17.4145C28.9272 17.2705 30.0246 17.1946 31.146 17.1946ZM26.3562 30.2701C26.3562 28.6881 26.4133 27.1378 26.5232 25.6472C28.0138 25.5373 29.564 25.4803 31.146 25.4803C32.728 25.4803 34.2783 25.5373 35.7689 25.6472C35.8788 27.1378 35.9358 28.688 35.9358 30.2701C35.9358 31.8521 35.8788 33.4023 35.7689 34.8928C34.2783 35.0028 32.728 35.0598 31.146 35.0598C29.5641 35.0598 28.0138 35.0028 26.5232 34.8928C26.4133 33.4024 26.3562 31.8521 26.3562 30.2701ZM25.6283 34.8198C22.8892 34.5743 20.3803 34.1451 18.2904 33.554C18.1465 32.4889 18.0705 31.3915 18.0705 30.2701C18.0705 29.1487 18.1464 28.0512 18.2904 26.9861C20.3803 26.3951 22.8892 25.9659 25.6283 25.7203C25.5232 27.1906 25.469 28.716 25.469 30.2701C25.469 31.8241 25.5231 33.3495 25.6283 34.8198ZM36.6638 25.7204C39.403 25.9659 41.9118 26.3951 44.0018 26.9862C44.1457 28.0513 44.2217 29.1487 44.2217 30.2701C44.2217 31.3916 44.1457 32.489 44.0018 33.5541C41.9118 34.1452 39.403 34.5743 36.6638 34.8199C36.7689 33.3496 36.8231 31.8242 36.8231 30.2701C36.8231 28.716 36.7689 27.1907 36.6638 25.7204ZM36.5927 24.8235C36.3591 22.1386 35.9518 19.6629 35.3911 17.5646C37.7049 17.9744 39.8445 18.7112 41.7123 19.7039C42.705 21.5717 43.4418 23.7112 43.8516 26.025C41.7533 25.4644 39.2776 25.0571 36.5927 24.8235ZM25.6994 24.8235C23.0145 25.0571 20.5387 25.4644 18.4405 26.025C18.8503 23.7112 19.5871 21.5717 20.5798 19.7039C22.4476 18.7112 24.5871 17.9744 26.9009 17.5646C26.3403 19.6629 25.9331 22.1386 25.6994 24.8235ZM17.3588 33.2696C14.7279 32.4022 13.186 31.3051 13.186 30.2701C13.186 29.235 14.7278 28.1379 17.3588 27.2705C17.2432 28.2536 17.1832 29.2556 17.1832 30.2701C17.1832 31.2845 17.2432 32.2865 17.3588 33.2696ZM25.6994 35.7167C25.933 38.4016 26.3403 40.8774 26.9009 42.9756C24.5871 42.5658 22.4476 41.829 20.5798 40.8363C19.5871 38.9685 18.8503 36.829 18.4405 34.5152C20.5388 35.0758 23.0146 35.4831 25.6994 35.7167ZM36.5927 35.7167C39.2776 35.4831 41.7533 35.0758 43.8516 34.5152C43.4418 36.829 42.705 38.9685 41.7123 40.8363C39.8445 41.8291 37.7049 42.5658 35.3911 42.9756C35.9518 40.8774 36.3591 38.4015 36.5927 35.7167ZM44.9333 27.2706C47.5642 28.138 49.106 29.235 49.106 30.2701C49.106 31.3052 47.5642 32.4023 44.9333 33.2697C45.0489 32.2866 45.1088 31.2846 45.1088 30.2701C45.1089 29.2556 45.0489 28.2537 44.9333 27.2706ZM48.8965 28.2719C48.0283 27.5316 46.6522 26.8661 44.7993 26.2967C44.4766 24.2538 43.9055 22.3074 43.106 20.5247C46.1396 22.4999 48.2493 25.2125 48.8965 28.2719ZM40.8916 18.3101C39.1089 17.5107 37.1624 16.9396 35.1195 16.6168C34.55 14.7639 33.8846 13.3877 33.1442 12.5196C36.2037 13.1668 38.9162 15.2765 40.8916 18.3101ZM29.1479 12.5196C28.4076 13.3878 27.7421 14.7639 27.1727 16.6169C25.1297 16.9396 23.1833 17.5107 21.4006 18.3101C23.3758 15.2765 26.0884 13.1668 29.1479 12.5196ZM19.186 20.5246C18.3867 22.3073 17.8155 24.2538 17.4928 26.2967C15.6398 26.8661 14.2637 27.5316 13.3955 28.2719C14.0427 25.2125 16.1525 22.5 19.186 20.5246ZM13.3955 32.2683C14.2637 33.0086 15.6398 33.6741 17.4928 34.2435C17.8155 36.2865 18.3867 38.2329 19.186 40.0156C16.1525 38.0403 14.0427 35.3277 13.3955 32.2683ZM21.4005 42.2301C23.1832 43.0295 25.1297 43.6007 27.1726 43.9233C27.742 45.7763 28.4075 47.1524 29.1478 48.0206C26.0884 47.3734 23.3758 45.2636 21.4005 42.2301ZM33.1442 48.0206C33.8845 47.1524 34.55 45.7763 35.1194 43.9233C37.1624 43.6007 39.1088 43.0294 40.8915 42.2301C38.9162 45.2636 36.2037 47.3734 33.1442 48.0206ZM43.106 40.0156C43.9055 38.2329 44.4766 36.2865 44.7993 34.2436C46.6522 33.6741 48.0284 33.0087 48.8965 32.2683C48.2493 35.3277 46.1396 38.0403 43.106 40.0156Z" fill="url(#paint1_linear_213_649)"/>
<path d="M24.6613 12.561C19.9407 14.2901 16.1046 17.853 14.0148 22.3869C13.7671 22.9243 13.6445 23.5108 13.6445 24.1025C13.6445 25.2045 14.0823 26.2614 14.8616 27.0407L15.2469 27.426C16.9738 29.1529 19.3159 30.123 21.7581 30.123C22.123 30.123 22.4187 29.8272 22.4187 29.4625C22.4187 29.0976 22.123 28.8018 21.7581 28.8018H19.7274C18.7909 28.8018 18.0316 28.0426 18.0316 27.106C18.0316 26.1694 18.7908 25.4101 19.7274 25.4101H21.3135C23.2153 25.4101 25.0392 24.6547 26.3839 23.3099L28.8328 20.861C29.366 20.3278 30.0893 20.0282 30.8434 20.0282C31.9344 20.0282 32.9292 19.404 33.4037 18.4217C33.9854 17.2177 33.1083 15.8199 31.7713 15.8199H28.6117C27.6827 15.8199 26.9296 15.0668 26.9296 14.1378C26.9296 12.9656 25.7622 12.1578 24.6613 12.561Z" fill="url(#paint2_linear_213_649)"/>
<path d="M49.5616 26.2078C49.3012 25.0222 48.241 24.1836 47.0272 24.1836H44.3693H42.9486C40.5337 24.1836 38.5762 26.1412 38.5762 28.556V29.088C38.5762 31.209 40.2956 32.9285 42.4166 32.9285C43.4951 32.9285 44.3693 33.8027 44.3693 34.8812V39.9803C44.3693 41.3091 46.0947 41.8384 46.8331 40.7337C48.3677 38.438 49.4116 35.7861 49.815 32.9285C49.937 32.0604 50.0006 31.1724 50.0006 30.2703C50.0005 28.8754 49.8489 27.5162 49.5616 26.2078Z" fill="url(#paint3_linear_213_649)"/>
<path d="M39.5795 13.4043C40.8512 15.9423 41.568 18.8065 41.568 21.8385C41.568 32.2515 33.1266 40.693 22.7135 40.693C19.6815 40.693 16.8173 39.9762 14.2793 38.7045C17.375 44.8829 23.7643 49.1248 31.1453 49.1248C41.5584 49.1248 49.9998 40.6834 49.9998 30.2703C49.9998 22.8893 45.7579 16.5 39.5795 13.4043Z" fill="url(#paint4_linear_213_649)"/>
<path d="M40.6612 22.4794C39.7159 21.534 37.3659 22.3158 32.8922 26.4944L30.2778 26.1722L29.4333 25.3009C28.9819 24.8495 28.2501 24.8495 27.7988 25.3009C27.6908 25.4088 27.6099 25.533 27.5539 25.6654L26.8815 24.9889C26.4301 24.5376 25.6984 24.5376 25.247 24.9889C25.096 25.1399 24.9968 25.3225 24.9468 25.5152L23.9356 25.3906C23.6945 25.3609 23.4178 25.4711 23.2087 25.6803L21.4781 27.411C21.2954 27.5936 21.2962 27.8568 21.4799 27.9358L26.6882 33.0255C25.1697 34.7919 23.7824 36.5387 22.7172 38.044L20.1244 37.6921C20.0202 37.678 19.8999 37.7253 19.8091 37.8161L19.0014 38.6238C18.8455 38.7797 18.8315 39.0034 18.9722 39.0937L20.9194 40.9832C20.5925 41.6983 20.5024 42.2049 20.7191 42.4216L26.9544 48.6569C28.3022 48.9628 29.7046 49.125 31.145 49.125C41.0569 49.125 49.182 41.4764 49.9411 31.7594L40.6612 22.4794Z" fill="url(#paint5_linear_213_649)"/>
<path d="M26.064 26.9619C26.7023 26.9619 27.2197 26.4445 27.2197 25.8062C27.2197 25.1678 26.7023 24.6504 26.064 24.6504C25.4257 24.6504 24.9082 25.1678 24.9082 25.8062C24.9082 26.4445 25.4257 26.9619 26.064 26.9619Z" fill="url(#paint6_linear_213_649)"/>
<path d="M26.0642 26.7701C26.597 26.7701 27.0289 26.3382 27.0289 25.8054C27.0289 25.2727 26.597 24.8408 26.0642 24.8408C25.5315 24.8408 25.0996 25.2727 25.0996 25.8054C25.0996 26.3382 25.5315 26.7701 26.0642 26.7701Z" fill="url(#paint7_linear_213_649)"/>
<path d="M27.1605 25.4404C27.1056 25.6055 27.0125 25.7607 26.8812 25.8922C26.4298 26.3436 25.698 26.3436 25.2467 25.8922C25.1152 25.7607 25.0222 25.6055 24.9673 25.4404C24.8336 25.8424 24.9267 26.3033 25.2467 26.6232C25.698 27.0745 26.4298 27.0745 26.8812 26.6232C27.2011 26.3033 27.2942 25.8425 27.1605 25.4404Z" fill="url(#paint8_linear_213_649)"/>
<path d="M26.064 26.9619C26.7023 26.9619 27.2197 26.4445 27.2197 25.8062C27.2197 25.1678 26.7023 24.6504 26.064 24.6504C25.4257 24.6504 24.9082 25.1678 24.9082 25.8062C24.9082 26.4445 25.4257 26.9619 26.064 26.9619Z" fill="url(#paint9_linear_213_649)"/>
<path d="M29.434 26.935C28.9826 27.3863 28.2508 27.3863 27.7995 26.935C27.3481 26.4836 27.3481 25.7518 27.7995 25.3004C28.2508 24.8491 28.9826 24.8491 29.434 25.3004C29.8853 25.7518 29.8853 26.4837 29.434 26.935Z" fill="url(#paint10_linear_213_649)"/>
<path d="M28.617 27.0826C29.1497 27.0826 29.5816 26.6507 29.5816 26.1179C29.5816 25.5852 29.1497 25.1533 28.617 25.1533C28.0842 25.1533 27.6523 25.5852 27.6523 26.1179C27.6523 26.6507 28.0842 27.0826 28.617 27.0826Z" fill="url(#paint11_linear_213_649)"/>
<path d="M29.7133 25.752C29.6584 25.9171 29.5653 26.0723 29.4339 26.2037C28.9825 26.6551 28.2508 26.6551 27.7994 26.2037C27.6679 26.0723 27.5749 25.9171 27.52 25.752C27.3864 26.1539 27.4795 26.6148 27.7994 26.9347C28.2508 27.3861 28.9825 27.3861 29.4339 26.9347C29.7538 26.6147 29.8469 26.1539 29.7133 25.752Z" fill="url(#paint12_linear_213_649)"/>
<path d="M29.434 26.935C28.9826 27.3863 28.2508 27.3863 27.7995 26.935C27.3481 26.4836 27.3481 25.7518 27.7995 25.3004C28.2508 24.8491 28.9826 24.8491 29.434 25.3004C29.8853 25.7518 29.8853 26.4837 29.434 26.935Z" fill="url(#paint13_linear_213_649)"/>
<path d="M37.3355 38.2315C37.9738 38.2315 38.4912 37.714 38.4912 37.0757C38.4912 36.4374 37.9738 35.9199 37.3355 35.9199C36.6971 35.9199 36.1797 36.4374 36.1797 37.0757C36.1797 37.714 36.6971 38.2315 37.3355 38.2315Z" fill="url(#paint14_linear_213_649)"/>
<path d="M37.3357 38.0406C37.8685 38.0406 38.3003 37.6087 38.3003 37.076C38.3003 36.5432 37.8685 36.1113 37.3357 36.1113C36.803 36.1113 36.3711 36.5432 36.3711 37.076C36.3711 37.6087 36.803 38.0406 37.3357 38.0406Z" fill="url(#paint15_linear_213_649)"/>
<path d="M37.701 35.979C37.5359 36.0339 37.3806 36.127 37.2492 36.2583C36.7978 36.7097 36.7978 37.4415 37.2492 37.8928C37.3806 38.0243 37.5359 38.1173 37.701 38.1722C37.299 38.3059 36.8381 38.2128 36.5182 37.8928C36.0668 37.4415 36.0668 36.7097 36.5182 36.2583C36.8381 35.9384 37.2989 35.8454 37.701 35.979Z" fill="url(#paint16_linear_213_649)"/>
<path d="M37.3355 38.2315C37.9738 38.2315 38.4912 37.714 38.4912 37.0757C38.4912 36.4374 37.9738 35.9199 37.3355 35.9199C36.6971 35.9199 36.1797 36.4374 36.1797 37.0757C36.1797 37.714 36.6971 38.2315 37.3355 38.2315Z" fill="url(#paint17_linear_213_649)"/>
<path d="M36.2057 33.7067C35.7543 34.1581 35.7543 34.8898 36.2057 35.3412C36.6571 35.7926 37.3889 35.7926 37.8402 35.3412C38.2916 34.8898 38.2916 34.1581 37.8402 33.7067C37.3889 33.2553 36.6571 33.2553 36.2057 33.7067Z" fill="url(#paint18_linear_213_649)"/>
<path d="M37.0232 35.4888C37.556 35.4888 37.9879 35.0569 37.9879 34.5242C37.9879 33.9914 37.556 33.5596 37.0232 33.5596C36.4905 33.5596 36.0586 33.9914 36.0586 34.5242C36.0586 35.0569 36.4905 35.4888 37.0232 35.4888Z" fill="url(#paint19_linear_213_649)"/>
<path d="M37.3885 33.4272C37.2234 33.4821 37.0681 33.5752 36.9367 33.7066C36.4853 34.158 36.4853 34.8897 36.9367 35.3411C37.0681 35.4725 37.2234 35.5656 37.3885 35.6205C36.9865 35.7541 36.5256 35.661 36.2057 35.3411C35.7543 34.8897 35.7543 34.158 36.2057 33.7066C36.5256 33.3867 36.9864 33.2936 37.3885 33.4272Z" fill="url(#paint20_linear_213_649)"/>
<path d="M36.2057 33.7067C35.7543 34.1581 35.7543 34.8898 36.2057 35.3412C36.6571 35.7926 37.3889 35.7926 37.8402 35.3412C38.2916 34.8898 38.2916 34.1581 37.8402 33.7067C37.3889 33.2553 36.6571 33.2553 36.2057 33.7067Z" fill="url(#paint21_linear_213_649)"/>
<path d="M18.9721 39.0935L21.4495 40.6852L23.9267 38.2079L20.1244 37.6919C20.0202 37.6778 19.8999 37.7251 19.8091 37.8159L19.0014 38.6236C18.8455 38.7795 18.8316 39.0031 18.9721 39.0935Z" fill="url(#paint22_linear_213_649)"/>
<path d="M19.243 38.3823L19.0014 38.6239C18.8455 38.7798 18.8315 39.0035 18.9722 39.0938L21.4495 40.6855L23.3606 38.7744L19.5583 38.2583C19.4541 38.2442 19.3338 38.2916 19.243 38.3823Z" fill="url(#paint23_linear_213_649)"/>
<path d="M24.0468 44.1685L22.4551 41.6911L24.9323 39.2139L25.4483 43.0162C25.4625 43.1204 25.4152 43.2408 25.3244 43.3315L24.5167 44.1392C24.3607 44.2951 24.1371 44.309 24.0468 44.1685Z" fill="url(#paint24_linear_213_649)"/>
<path d="M24.7583 43.8969L24.5167 44.1385C24.3608 44.2944 24.1371 44.3084 24.0468 44.1678L22.4551 41.6904L24.3662 39.7793L24.8822 43.5817C24.8964 43.6858 24.849 43.8062 24.7583 43.8969Z" fill="url(#paint25_linear_213_649)"/>
<path d="M21.48 27.9357L29.3633 31.3332L34.0585 26.638L23.9358 25.3905C23.6947 25.3608 23.418 25.4711 23.2089 25.6803L21.4782 27.4109C21.2956 27.5934 21.2965 27.8566 21.48 27.9357Z" fill="url(#paint26_linear_213_649)"/>
<path d="M22.0935 26.7954L21.4782 27.4106C21.2956 27.5933 21.2964 27.8565 21.4801 27.9355L29.3633 31.333L32.9431 27.7532L22.8204 26.5058C22.5793 26.476 22.3026 26.5863 22.0935 26.7954Z" fill="url(#paint27_linear_213_649)"/>
<path d="M26.5987 26.9714L22.8204 26.5058C22.5793 26.476 22.3026 26.5863 22.0935 26.7955L21.4782 27.4107C21.2956 27.5934 21.2964 27.8565 21.4801 27.9356L24.3833 29.1868L26.5987 26.9714Z" fill="url(#paint28_linear_213_649)"/>
<path d="M21.48 27.9353L29.3633 31.3327L30.9779 29.7182L22.2383 26.6504L21.4783 27.4104C21.2956 27.593 21.2965 27.8561 21.48 27.9353Z" fill="url(#paint29_linear_213_649)"/>
<path d="M35.206 41.6605L31.8086 33.7772L36.5038 29.082L37.7513 39.2048C37.781 39.4459 37.6707 39.7226 37.4615 39.9317L35.7309 41.6623C35.5483 41.8449 35.2851 41.8441 35.206 41.6605Z" fill="url(#paint30_linear_213_649)"/>
<path d="M36.3461 41.0469L35.7309 41.6621C35.5482 41.8448 35.2851 41.8439 35.206 41.6603L31.8086 33.777L35.3884 30.1973L36.6358 40.32C36.6655 40.5611 36.5553 40.8377 36.3461 41.0469Z" fill="url(#paint31_linear_213_649)"/>
<path d="M36.1685 36.542L36.6341 40.3203C36.6639 40.5614 36.5536 40.8381 36.3444 41.0472L35.7292 41.6625C35.5465 41.8451 35.2834 41.8443 35.2043 41.6607L33.9531 38.7574L36.1685 36.542Z" fill="url(#paint32_linear_213_649)"/>
<path d="M35.206 41.66L31.8086 33.7767L33.4232 32.1621L36.4909 40.9018L35.7309 41.6618C35.5483 41.8444 35.2851 41.8435 35.206 41.66Z" fill="url(#paint33_linear_213_649)"/>
<path d="M35.1242 31.8216C29.6173 37.3284 21.7704 43.4721 20.7199 42.4216C19.6693 41.3711 25.813 33.5242 31.3199 28.0173C36.8267 22.5104 39.6114 21.429 40.6619 22.4795C41.7125 23.5301 40.6311 26.3148 35.1242 31.8216Z" fill="url(#paint34_linear_213_649)"/>
<path d="M34.7164 31.6599C29.4784 36.8979 22.1005 42.8274 21.2071 41.934C20.3138 41.0406 26.2433 33.6627 31.4812 28.4247C36.7191 23.1868 39.282 22.0723 40.1754 22.9657C41.0688 23.8591 39.9543 26.422 34.7164 31.6599Z" fill="url(#paint35_linear_213_649)"/>
<path d="M35.1231 31.8215C40.6299 26.3146 41.7114 23.53 40.6609 22.4795L20.7188 42.4216C21.7693 43.4721 29.6162 37.3284 35.1231 31.8215Z" fill="url(#paint36_linear_213_649)"/>
<path d="M35.9722 24.5218C35.635 24.8154 35.2811 25.1316 34.9099 25.4713C34.815 25.5582 34.8237 25.693 34.9263 25.7115C35.5612 25.8259 36.1344 26.104 36.5861 26.5557C37.0378 27.0074 37.3159 27.5806 37.4303 28.2154C37.4488 28.3181 37.5836 28.3267 37.6705 28.2318C38.0102 27.8607 38.3263 27.5068 38.62 27.1696C38.8198 26.94 38.9059 26.6512 38.8412 26.4181C38.6997 25.9089 38.4437 25.4493 38.0681 25.0737C37.6924 24.698 37.2328 24.442 36.7237 24.3005C36.4906 24.2358 36.2018 24.3219 35.9722 24.5218Z" fill="url(#paint37_linear_213_649)"/>
<path d="M38.6188 27.1697C38.3608 27.4669 38.0847 27.7767 37.7906 28.0999C37.7506 28.1438 37.7106 28.1877 37.6698 28.2324C37.5828 28.3273 37.4479 28.3187 37.429 28.2159C37.3153 27.5806 37.0369 27.0073 36.5851 26.5555C36.5585 26.5289 36.5318 26.503 36.5043 26.4787C36.1836 26.1814 35.8071 25.9665 35.3945 25.83C35.7655 25.492 36.1177 25.1767 36.4541 24.8842C36.6839 24.6842 36.9726 24.5979 37.2055 24.663C37.4824 24.7399 37.7443 24.8504 37.9867 24.9963C38.0141 25.0214 38.0408 25.0473 38.0675 25.074C38.4432 25.4497 38.6988 25.9093 38.84 26.4183C38.9051 26.6512 38.8188 26.9399 38.6188 27.1697Z" fill="url(#paint38_linear_213_649)"/>
<path d="M37.4301 28.215C37.4486 28.3176 37.5834 28.3263 37.6703 28.2314C38.01 27.8602 38.3262 27.5063 38.6198 27.1691C38.8197 26.9395 38.9058 26.6507 38.8411 26.4176C38.6996 25.9084 38.4435 25.4489 38.0679 25.0732L36.5859 26.5552C37.0376 27.0069 37.3157 27.5801 37.4301 28.215Z" fill="url(#paint39_linear_213_649)"/>
<path d="M22.5695 40.7359L22.4038 40.5702C22.2652 40.4316 22.3127 40.1652 22.5071 39.9912L25.3695 37.4288C25.4952 37.3162 25.6619 37.2984 25.7515 37.3882C25.8412 37.4778 25.8235 37.6445 25.7108 37.7702L23.1485 40.6326C22.9745 40.8269 22.7081 40.8745 22.5695 40.7359Z" fill="url(#paint40_linear_213_649)"/>
<path d="M12.5062 46.5921C12.3416 46.5921 12.1833 46.5821 12.0323 46.5622C11.82 46.5342 11.6809 46.3259 11.7381 46.1196L11.8951 45.5528C11.9405 45.3893 12.0959 45.2807 12.2648 45.2973C12.582 45.3283 12.9754 45.2941 13.4274 45.1952C13.6101 45.1552 13.7924 45.2661 13.841 45.4467L13.9923 46.0086C14.0446 46.2029 13.9227 46.3999 13.7261 46.4436C13.2821 46.5422 12.873 46.5921 12.5062 46.5921ZM15.3206 45.5587L15.103 45.0199C15.0315 44.8427 15.1144 44.6417 15.2898 44.5662C15.6843 44.3964 16.102 44.1979 16.5376 43.9733C16.7081 43.8854 16.918 43.9505 17.0083 44.1198L17.2817 44.6325C17.374 44.8054 17.3063 45.0207 17.1321 45.1105C16.663 45.3526 16.2117 45.5668 15.7838 45.7506C15.6032 45.8283 15.3944 45.7412 15.3206 45.5587ZM10.566 45.1093C10.3671 45.1935 10.1385 45.0807 10.0876 44.8708C10.0294 44.6304 10 44.3679 10 44.0859C10 43.7893 10.0325 43.4647 10.0971 43.1174C10.1339 42.9192 10.3283 42.7912 10.5243 42.8378L11.0903 42.9724C11.2711 43.0154 11.3876 43.1925 11.3544 43.3753C11.3071 43.6354 11.2833 43.8734 11.2833 44.0857C11.2833 44.2335 11.2948 44.3683 11.3175 44.489C11.3482 44.6519 11.2629 44.8139 11.1102 44.8786L10.566 45.1093ZM18.4861 43.9545L18.19 43.4545C18.092 43.2891 18.1448 43.0757 18.3092 42.9761C18.6969 42.7412 19.0966 42.4891 19.5033 42.223C19.6644 42.1176 19.8806 42.1624 19.9872 42.3226L20.3091 42.8064C20.4173 42.969 20.3716 43.1884 20.2082 43.2954C19.7871 43.5709 19.3729 43.8322 18.9706 44.0758C18.8033 44.1771 18.5858 44.1228 18.4861 43.9545ZM21.9371 42.1111C21.7783 42.2245 21.5576 42.1877 21.4452 42.0282ZM11.4874 41.7052L10.945 41.4965C10.7612 41.4257 10.6706 41.218 10.7456 41.0359C10.9229 40.6058 11.1322 40.1509 11.3707 39.677C11.4589 39.5019 11.6736 39.432 11.8475 39.5228L12.3627 39.7915C12.5328 39.8802 12.5998 40.0893 12.5136 40.2606C12.2933 40.6985 12.1005 41.1171 11.9376 41.5114C11.8647 41.6878 11.6654 41.7737 11.4874 41.7052ZM13.018 38.6055L12.5161 38.3129C12.3473 38.2145 12.291 37.9976 12.391 37.8298C12.3942 37.8245 12.3974 37.8191 12.4005 37.8137C12.5006 37.6461 12.7187 37.5919 12.8853 37.6937L13.3813 37.9963C13.5457 38.0967 13.5984 38.3108 13.4996 38.4763C13.4984 38.4783 13.4972 38.4803 13.496 38.4823C13.3974 38.6476 13.1844 38.7025 13.018 38.6055ZM41.2577 22.171L40.7817 21.8378C40.6238 21.7273 40.5843 21.51 40.6937 21.3514C40.9688 20.9527 41.2322 20.5588 41.4806 20.1748C41.5851 20.0131 41.8004 19.9667 41.9629 20.0698L42.4534 20.3813C42.6183 20.486 42.666 20.7047 42.5599 20.8687C42.3037 21.265 42.0322 21.6711 41.7487 22.0819C41.6379 22.2426 41.4177 22.2829 41.2577 22.171ZM43.1722 19.2035L42.6707 18.9101C42.5049 18.813 42.4478 18.6003 42.5431 18.4334C42.7853 18.0088 43.0069 17.597 43.2051 17.2032C43.2912 17.0321 43.4983 16.9623 43.6708 17.0457L44.194 17.2985C44.3707 17.3839 44.4435 17.597 44.3554 17.7723C44.1455 18.1897 43.9112 18.6254 43.6554 19.0736C43.5582 19.2435 43.3411 19.3024 43.1722 19.2035ZM44.7512 16.0236L44.2098 15.8127C44.032 15.7435 43.9433 15.5449 44.0076 15.3653C44.1722 14.9056 44.29 14.4854 44.3595 14.1098C44.3931 13.9286 44.5617 13.8056 44.7448 13.8269L45.323 13.8945C45.5237 13.918 45.6641 14.1054 45.6284 14.3042C45.5459 14.7636 45.4057 15.2695 45.2095 15.8155C45.1427 16.0012 44.935 16.0952 44.7512 16.0236ZM39.9696 12.7236L39.7291 12.1945C39.6479 12.0158 39.729 11.8044 39.9093 11.7267C40.4155 11.5085 40.8937 11.331 41.3374 11.1963C41.5287 11.1382 41.7298 11.2496 41.7806 11.443L41.928 12.0054C41.9756 12.1872 41.8723 12.3746 41.6926 12.4295C41.3031 12.5485 40.88 12.7061 40.4286 12.9003C40.2529 12.9758 40.0486 12.8977 39.9696 12.7236ZM44.6167 12.6337C44.4736 12.6888 44.3082 12.647 44.2159 12.5245C44.1947 12.4962 44.1717 12.4697 44.147 12.445C43.9572 12.2553 43.6436 12.1588 43.2148 12.1582H43.2027V10.875V11.5166L43.2035 11.2431C43.204 11.0365 43.3824 10.8729 43.588 10.8938C44.1976 10.9559 44.6884 11.1718 45.0544 11.5376C45.1659 11.649 45.264 11.7734 45.3482 11.9095C45.4631 12.0955 45.3775 12.341 45.1734 12.4195L44.6167 12.6337Z" fill="url(#paint41_linear_213_649)"/>
<path d="M22.9847 17.2623C23.59 17.2623 24.0807 16.7716 24.0807 16.1663C24.0807 15.561 23.59 15.0703 22.9847 15.0703C22.3794 15.0703 21.8887 15.561 21.8887 16.1663C21.8887 16.7716 22.3794 17.2623 22.9847 17.2623Z" fill="url(#paint42_linear_213_649)"/>
<path d="M17.1448 25.3756C17.7501 25.3756 18.2408 24.8849 18.2408 24.2796C18.2408 23.6743 17.7501 23.1836 17.1448 23.1836C16.5395 23.1836 16.0488 23.6743 16.0488 24.2796C16.0488 24.8849 16.5395 25.3756 17.1448 25.3756Z" fill="url(#paint43_linear_213_649)"/>
<path d="M47.0296 28.1783C47.6349 28.1783 48.1256 27.6876 48.1256 27.0823C48.1256 26.477 47.6349 25.9863 47.0296 25.9863C46.4243 25.9863 45.9336 26.477 45.9336 27.0823C45.9336 27.6876 46.4243 28.1783 47.0296 28.1783Z" fill="url(#paint44_linear_213_649)"/>
</g>
<defs>
<linearGradient id="paint0_linear_213_649" x1="22.0151" y1="21.1402" x2="44.8673" y2="43.9923" gradientUnits="userSpaceOnUse">
<stop stop-color="#00AEFC"/>
<stop offset="1" stop-color="#3F3CEE"/>
</linearGradient>
<linearGradient id="paint1_linear_213_649" x1="34.0278" y1="51.0282" x2="27.2435" y2="2.15854" gradientUnits="userSpaceOnUse">
<stop stop-color="#00AEFC" stop-opacity="0"/>
<stop offset="1" stop-color="#18CFFC"/>
</linearGradient>
<linearGradient id="paint2_linear_213_649" x1="25.2229" y1="22.7126" x2="54.9299" y2="43.7911" gradientUnits="userSpaceOnUse">
<stop stop-color="#E5F3FF"/>
<stop offset="1" stop-color="#B3CCFF"/>
</linearGradient>
<linearGradient id="paint3_linear_213_649" x1="41.4393" y1="31.8786" x2="54.7519" y2="34.2206" gradientUnits="userSpaceOnUse">
<stop stop-color="#E5F3FF"/>
<stop offset="1" stop-color="#B3CCFF"/>
</linearGradient>
<linearGradient id="paint4_linear_213_649" x1="37.3709" y1="26.5438" x2="51.2297" y2="-0.532173" gradientUnits="userSpaceOnUse">
<stop stop-color="#3F3CEE" stop-opacity="0"/>
<stop offset="1" stop-color="#2F43BC"/>
</linearGradient>
<linearGradient id="paint5_linear_213_649" x1="39.3667" y1="41.127" x2="29.7711" y2="31.5314" gradientUnits="userSpaceOnUse">
<stop stop-color="#3F3CEE" stop-opacity="0"/>
<stop offset="1" stop-color="#2F43BC"/>
</linearGradient>
<linearGradient id="paint6_linear_213_649" x1="26.0764" y1="25.1846" x2="26.0764" y2="27.3013" gradientUnits="userSpaceOnUse">
<stop stop-color="#F9F7FC"/>
<stop offset="1" stop-color="#F0DDFC"/>
</linearGradient>
<linearGradient id="paint7_linear_213_649" x1="26.0767" y1="26.3294" x2="26.0767" y2="24.8504" gradientUnits="userSpaceOnUse">
<stop stop-color="#E9EDF5" stop-opacity="0"/>
<stop offset="1" stop-color="white"/>
</linearGradient>
<linearGradient id="paint8_linear_213_649" x1="25.7916" y1="26.1374" x2="29.0038" y2="25.1716" gradientUnits="userSpaceOnUse">
<stop stop-color="#F0DDFC" stop-opacity="0"/>
<stop offset="0.2889" stop-color="#C8B7E0" stop-opacity="0.289"/>
<stop offset="0.5915" stop-color="#A595C8" stop-opacity="0.592"/>
<stop offset="0.8395" stop-color="#8F81B8" stop-opacity="0.84"/>
<stop offset="1" stop-color="#8779B3"/>
</linearGradient>
<linearGradient id="paint9_linear_213_649" x1="26.1809" y1="25.2116" x2="25.9916" y2="26.2701" gradientUnits="userSpaceOnUse">
<stop stop-color="#F0DDFC" stop-opacity="0"/>
<stop offset="0.2889" stop-color="#C8B7E0" stop-opacity="0.289"/>
<stop offset="0.5915" stop-color="#A595C8" stop-opacity="0.592"/>
<stop offset="0.8395" stop-color="#8F81B8" stop-opacity="0.84"/>
<stop offset="1" stop-color="#8779B3"/>
</linearGradient>
<linearGradient id="paint10_linear_213_649" x1="28.6288" y1="25.4962" x2="28.6288" y2="27.6128" gradientUnits="userSpaceOnUse">
<stop stop-color="#F9F7FC"/>
<stop offset="1" stop-color="#F0DDFC"/>
</linearGradient>
<linearGradient id="paint11_linear_213_649" x1="28.6291" y1="26.6417" x2="28.629" y2="25.1628" gradientUnits="userSpaceOnUse">
<stop stop-color="#E9EDF5" stop-opacity="0"/>
<stop offset="1" stop-color="white"/>
</linearGradient>
<linearGradient id="paint12_linear_213_649" x1="28.3439" y1="26.4488" x2="31.5561" y2="25.4831" gradientUnits="userSpaceOnUse">
<stop stop-color="#F0DDFC" stop-opacity="0"/>
<stop offset="0.2889" stop-color="#C8B7E0" stop-opacity="0.289"/>
<stop offset="0.5915" stop-color="#A595C8" stop-opacity="0.592"/>
<stop offset="0.8395" stop-color="#8F81B8" stop-opacity="0.84"/>
<stop offset="1" stop-color="#8779B3"/>
</linearGradient>
<linearGradient id="paint13_linear_213_649" x1="28.7333" y1="25.5231" x2="28.544" y2="26.5817" gradientUnits="userSpaceOnUse">
<stop stop-color="#F0DDFC" stop-opacity="0"/>
<stop offset="0.2889" stop-color="#C8B7E0" stop-opacity="0.289"/>
<stop offset="0.5915" stop-color="#A595C8" stop-opacity="0.592"/>
<stop offset="0.8395" stop-color="#8F81B8" stop-opacity="0.84"/>
<stop offset="1" stop-color="#8779B3"/>
</linearGradient>
<linearGradient id="paint14_linear_213_649" x1="37.9596" y1="37.0659" x2="35.843" y2="37.0659" gradientUnits="userSpaceOnUse">
<stop stop-color="#F9F7FC"/>
<stop offset="1" stop-color="#F0DDFC"/>
</linearGradient>
<linearGradient id="paint15_linear_213_649" x1="36.8145" y1="37.0661" x2="38.2935" y2="37.0661" gradientUnits="userSpaceOnUse">
<stop stop-color="#E9EDF5" stop-opacity="0"/>
<stop offset="1" stop-color="white"/>
</linearGradient>
<linearGradient id="paint16_linear_213_649" x1="37.0067" y1="37.3506" x2="37.9724" y2="34.1384" gradientUnits="userSpaceOnUse">
<stop stop-color="#F0DDFC" stop-opacity="0"/>
<stop offset="0.2889" stop-color="#C8B7E0" stop-opacity="0.289"/>
<stop offset="0.5915" stop-color="#A595C8" stop-opacity="0.592"/>
<stop offset="0.8395" stop-color="#8F81B8" stop-opacity="0.84"/>
<stop offset="1" stop-color="#8779B3"/>
</linearGradient>
<linearGradient id="paint17_linear_213_649" x1="37.9327" y1="36.9613" x2="36.8742" y2="37.1506" gradientUnits="userSpaceOnUse">
<stop stop-color="#F0DDFC" stop-opacity="0"/>
<stop offset="0.2889" stop-color="#C8B7E0" stop-opacity="0.289"/>
<stop offset="0.5915" stop-color="#A595C8" stop-opacity="0.592"/>
<stop offset="0.8395" stop-color="#8F81B8" stop-opacity="0.84"/>
<stop offset="1" stop-color="#8779B3"/>
</linearGradient>
<linearGradient id="paint18_linear_213_649" x1="37.6472" y1="34.5145" x2="35.5305" y2="34.5145" gradientUnits="userSpaceOnUse">
<stop stop-color="#F9F7FC"/>
<stop offset="1" stop-color="#F0DDFC"/>
</linearGradient>
<linearGradient id="paint19_linear_213_649" x1="36.5021" y1="34.5147" x2="37.981" y2="34.5148" gradientUnits="userSpaceOnUse">
<stop stop-color="#E9EDF5" stop-opacity="0"/>
<stop offset="1" stop-color="white"/>
</linearGradient>
<linearGradient id="paint20_linear_213_649" x1="36.6942" y1="34.7992" x2="37.66" y2="31.5871" gradientUnits="userSpaceOnUse">
<stop stop-color="#F0DDFC" stop-opacity="0"/>
<stop offset="0.2889" stop-color="#C8B7E0" stop-opacity="0.289"/>
<stop offset="0.5915" stop-color="#A595C8" stop-opacity="0.592"/>
<stop offset="0.8395" stop-color="#8F81B8" stop-opacity="0.84"/>
<stop offset="1" stop-color="#8779B3"/>
</linearGradient>
<linearGradient id="paint21_linear_213_649" x1="37.6203" y1="34.4099" x2="36.5616" y2="34.5993" gradientUnits="userSpaceOnUse">
<stop stop-color="#F0DDFC" stop-opacity="0"/>
<stop offset="0.2889" stop-color="#C8B7E0" stop-opacity="0.289"/>
<stop offset="0.5915" stop-color="#A595C8" stop-opacity="0.592"/>
<stop offset="0.8395" stop-color="#8F81B8" stop-opacity="0.84"/>
<stop offset="1" stop-color="#8779B3"/>
</linearGradient>
<linearGradient id="paint22_linear_213_649" x1="21.4427" y1="38.3395" x2="21.1713" y2="40.154" gradientUnits="userSpaceOnUse">
<stop stop-color="#FFDA45"/>
<stop offset="0.3043" stop-color="#FFCE3E"/>
<stop offset="0.8558" stop-color="#FFAE2B"/>
<stop offset="1" stop-color="#FFA425"/>
</linearGradient>
<linearGradient id="paint23_linear_213_649" x1="20.8178" y1="39.0718" x2="23.511" y2="36.3203" gradientUnits="userSpaceOnUse">
<stop stop-color="#FFDA45" stop-opacity="0"/>
<stop offset="1" stop-color="#B53759"/>
</linearGradient>
<linearGradient id="paint24_linear_213_649" x1="24.8047" y1="41.7018" x2="22.9902" y2="41.9733" gradientUnits="userSpaceOnUse">
<stop stop-color="#FFDA45"/>
<stop offset="0.3043" stop-color="#FFCE3E"/>
<stop offset="0.8558" stop-color="#FFAE2B"/>
<stop offset="1" stop-color="#FFA425"/>
</linearGradient>
<linearGradient id="paint25_linear_213_649" x1="24.0728" y1="42.3261" x2="26.8242" y2="39.6328" gradientUnits="userSpaceOnUse">
<stop stop-color="#FFDA45" stop-opacity="0"/>
<stop offset="1" stop-color="#B53759"/>
</linearGradient>
<linearGradient id="paint26_linear_213_649" x1="28.119" y1="26.4333" x2="25.3033" y2="31.1398" gradientUnits="userSpaceOnUse">
<stop stop-color="#FFDA45"/>
<stop offset="0.3043" stop-color="#FFCE3E"/>
<stop offset="0.8558" stop-color="#FFAE2B"/>
<stop offset="1" stop-color="#FFA425"/>
</linearGradient>
<linearGradient id="paint27_linear_213_649" x1="25.9204" y1="29.5041" x2="31.7086" y2="20.8779" gradientUnits="userSpaceOnUse">
<stop stop-color="#FFDA45" stop-opacity="0"/>
<stop offset="1" stop-color="#B53759"/>
</linearGradient>
<linearGradient id="paint28_linear_213_649" x1="24.4858" y1="28.0086" x2="27.2828" y2="31.5164" gradientUnits="userSpaceOnUse">
<stop stop-color="#F0DDFC" stop-opacity="0"/>
<stop offset="0.2889" stop-color="#C8B7E0" stop-opacity="0.289"/>
<stop offset="0.5915" stop-color="#A595C8" stop-opacity="0.592"/>
<stop offset="0.8395" stop-color="#8F81B8" stop-opacity="0.84"/>
<stop offset="1" stop-color="#8779B3"/>
</linearGradient>
<linearGradient id="paint29_linear_213_649" x1="26.0475" y1="28.8894" x2="24.8783" y2="31.0608" gradientUnits="userSpaceOnUse">
<stop stop-color="#FFDA45" stop-opacity="0"/>
<stop offset="1" stop-color="#B53759"/>
</linearGradient>
<linearGradient id="paint30_linear_213_649" x1="36.7111" y1="35.0242" x2="32.0046" y2="37.8399" gradientUnits="userSpaceOnUse">
<stop stop-color="#FFDA45"/>
<stop offset="0.3043" stop-color="#FFCE3E"/>
<stop offset="0.8558" stop-color="#FFAE2B"/>
<stop offset="1" stop-color="#FFA425"/>
</linearGradient>
<linearGradient id="paint31_linear_213_649" x1="34.2061" y1="36.8429" x2="42.8323" y2="31.0547" gradientUnits="userSpaceOnUse">
<stop stop-color="#FFDA45" stop-opacity="0"/>
<stop offset="1" stop-color="#B53759"/>
</linearGradient>
<linearGradient id="paint32_linear_213_649" x1="35.463" y1="38.92" x2="31.9552" y2="36.1231" gradientUnits="userSpaceOnUse">
<stop stop-color="#FFDA45" stop-opacity="0"/>
<stop offset="1" stop-color="#B53759"/>
</linearGradient>
<linearGradient id="paint33_linear_213_649" x1="34.2545" y1="37.0951" x2="32.0831" y2="38.2644" gradientUnits="userSpaceOnUse">
<stop stop-color="#FFDA45" stop-opacity="0"/>
<stop offset="1" stop-color="#B53759"/>
</linearGradient>
<linearGradient id="paint34_linear_213_649" x1="29.921" y1="31.6828" x2="32.3014" y2="34.0633" gradientUnits="userSpaceOnUse">
<stop stop-color="#E5F3FF"/>
<stop offset="1" stop-color="#B3CCFF"/>
</linearGradient>
<linearGradient id="paint35_linear_213_649" x1="31.5708" y1="33.2362" x2="28.1836" y2="30.2119" gradientUnits="userSpaceOnUse">
<stop stop-color="#E5F3FF" stop-opacity="0"/>
<stop offset="1" stop-color="white"/>
</linearGradient>
<linearGradient id="paint36_linear_213_649" x1="30.5206" y1="35.5132" x2="35.7915" y2="-1.28054" gradientUnits="userSpaceOnUse">
<stop stop-color="#B3CCFF" stop-opacity="0"/>
<stop offset="1" stop-color="#9FB0CB"/>
</linearGradient>
<linearGradient id="paint37_linear_213_649" x1="36.1656" y1="24.8099" x2="38.2386" y2="28.0675" gradientUnits="userSpaceOnUse">
<stop stop-color="#8B788A"/>
<stop offset="1" stop-color="#6E566E"/>
</linearGradient>
<linearGradient id="paint38_linear_213_649" x1="37.2109" y1="26.4482" x2="36.6619" y2="24.5462" gradientUnits="userSpaceOnUse">
<stop stop-color="#8B788A" stop-opacity="0"/>
<stop offset="1" stop-color="#9E8C92"/>
</linearGradient>
<linearGradient id="paint39_linear_213_649" x1="37.6373" y1="26.8783" x2="38.9402" y2="23.5256" gradientUnits="userSpaceOnUse">
<stop stop-color="#555A66" stop-opacity="0"/>
<stop offset="1" stop-color="#555A66"/>
</linearGradient>
<linearGradient id="paint40_linear_213_649" x1="24.0558" y1="38.9575" x2="24.338" y2="39.2398" gradientUnits="userSpaceOnUse">
<stop stop-color="#E5F3FF"/>
<stop offset="1" stop-color="#B3CCFF"/>
</linearGradient>
<linearGradient id="paint41_linear_213_649" x1="10" y1="28.7335" x2="45.6339" y2="28.7335" gradientUnits="userSpaceOnUse">
<stop stop-color="#FF7044"/>
<stop offset="1" stop-color="#F92814"/>
</linearGradient>
<linearGradient id="paint42_linear_213_649" x1="22.8997" y1="16.0814" x2="24.1069" y2="17.2886" gradientUnits="userSpaceOnUse">
<stop stop-color="#FF7044"/>
<stop offset="1" stop-color="#F92814"/>
</linearGradient>
<linearGradient id="paint43_linear_213_649" x1="16.6812" y1="23.816" x2="17.9978" y2="25.1326" gradientUnits="userSpaceOnUse">
<stop stop-color="#92F37F"/>
<stop offset="1" stop-color="#4AB272"/>
</linearGradient>
<linearGradient id="paint44_linear_213_649" x1="46.3531" y1="26.4059" x2="48.242" y2="28.2947" gradientUnits="userSpaceOnUse">
<stop stop-color="#92F37F"/>
<stop offset="1" stop-color="#4AB272"/>
</linearGradient>
<clipPath id="clip0_213_649">
<rect width="40" height="40" fill="white" transform="translate(10 10)"/>
</clipPath>
</defs>
</svg>
